<svg width="33" height="32" viewBox="0 0 33 32" fill="none" xmlns="http://www.w3.org/2000/svg">
<path d="M26.9607 12.7149C26.9607 12.7149 26.1602 21.4526 25.6958 25.1332C25.4747 26.8911 24.2407 27.9212 22.2196 27.9536C18.3733 28.0146 14.5226 28.0185 10.6778 27.9471C8.73331 27.9121 7.52002 26.869 7.30331 25.1423C6.83598 21.4292 6.0399 12.7149 6.0399 12.7149M29 8.52648H4M24.1828 8.52645C23.0255 8.52645 22.029 7.80642 21.8019 6.80876L21.4437 5.23118C21.2226 4.50337 20.4736 4 19.6201 4H13.3796C12.5261 4 11.7772 4.50337 11.556 5.23118L11.1978 6.80876C10.9708 7.80642 9.97418 8.52645 8.8169 8.52645" stroke="#0F0F0F" stroke-width="2.3" stroke-linecap="round" stroke-linejoin="round"/>
</svg>
