<svg width="1178" height="310" viewBox="0 0 1178 310" fill="none" xmlns="http://www.w3.org/2000/svg">
<path d="M336.04 281.091C336.04 285.215 335.258 288.723 333.695 291.616C332.143 294.509 330.026 296.719 327.342 298.246C324.671 299.76 321.667 300.517 318.331 300.517C314.97 300.517 311.954 299.754 309.283 298.227C306.611 296.701 304.5 294.491 302.949 291.598C301.398 288.705 300.622 285.203 300.622 281.091C300.622 276.967 301.398 273.458 302.949 270.565C304.5 267.672 306.611 265.469 309.283 263.955C311.954 262.428 314.97 261.665 318.331 261.665C321.667 261.665 324.671 262.428 327.342 263.955C330.026 265.469 332.143 267.672 333.695 270.565C335.258 273.458 336.04 276.967 336.04 281.091ZM327.933 281.091C327.933 278.42 327.533 276.167 326.733 274.332C325.945 272.498 324.831 271.107 323.391 270.159C321.95 269.211 320.264 268.737 318.331 268.737C316.398 268.737 314.712 269.211 313.271 270.159C311.831 271.107 310.711 272.498 309.911 274.332C309.123 276.167 308.729 278.42 308.729 281.091C308.729 283.762 309.123 286.015 309.911 287.849C310.711 289.684 311.831 291.075 313.271 292.023C314.712 292.971 316.398 293.445 318.331 293.445C320.264 293.445 321.95 292.971 323.391 292.023C324.831 291.075 325.945 289.684 326.733 287.849C327.533 286.015 327.933 283.762 327.933 281.091ZM385.953 273.058C385.806 271.569 385.172 270.411 384.052 269.587C382.931 268.762 381.411 268.349 379.49 268.349C378.186 268.349 377.084 268.534 376.185 268.903C375.286 269.26 374.597 269.759 374.117 270.399C373.649 271.039 373.415 271.766 373.415 272.578C373.391 273.255 373.532 273.846 373.84 274.351C374.16 274.856 374.597 275.293 375.151 275.662C375.705 276.019 376.345 276.333 377.071 276.604C377.798 276.862 378.573 277.084 379.398 277.268L382.796 278.081C384.445 278.45 385.96 278.943 387.338 279.558C388.717 280.174 389.911 280.931 390.921 281.83C391.93 282.728 392.712 283.787 393.266 285.006C393.832 286.224 394.122 287.622 394.134 289.197C394.122 291.512 393.531 293.518 392.361 295.217C391.204 296.904 389.53 298.215 387.338 299.151C385.159 300.074 382.531 300.536 379.453 300.536C376.4 300.536 373.741 300.068 371.476 299.132C369.223 298.196 367.463 296.812 366.195 294.977C364.939 293.131 364.281 290.847 364.219 288.126H371.956C372.043 289.394 372.406 290.453 373.046 291.303C373.698 292.14 374.566 292.774 375.65 293.205C376.745 293.623 377.982 293.832 379.361 293.832C380.715 293.832 381.891 293.635 382.888 293.241C383.898 292.848 384.679 292.3 385.233 291.598C385.787 290.896 386.064 290.09 386.064 289.179C386.064 288.33 385.812 287.616 385.307 287.037C384.815 286.458 384.088 285.966 383.128 285.56C382.18 285.153 381.017 284.784 379.638 284.452L375.52 283.418C372.332 282.642 369.814 281.429 367.968 279.78C366.121 278.13 365.204 275.908 365.216 273.114C365.204 270.824 365.813 268.823 367.044 267.112C368.288 265.401 369.993 264.065 372.159 263.105C374.326 262.145 376.788 261.665 379.546 261.665C382.353 261.665 384.802 262.145 386.895 263.105C389 264.065 390.638 265.401 391.807 267.112C392.977 268.823 393.58 270.805 393.617 273.058H385.953ZM410.887 300H402.319L415.374 262.182H425.678L438.715 300H430.147L420.674 270.824H420.379L410.887 300ZM410.352 285.135H430.59V291.376H410.352V285.135ZM448.987 300V262.182H464.129C466.911 262.182 469.232 262.594 471.091 263.419C472.95 264.244 474.347 265.389 475.283 266.854C476.218 268.306 476.686 269.981 476.686 271.876C476.686 273.354 476.391 274.652 475.8 275.773C475.209 276.881 474.396 277.792 473.362 278.506C472.34 279.207 471.171 279.706 469.854 280.001V280.371C471.294 280.432 472.642 280.839 473.898 281.589C475.166 282.34 476.194 283.393 476.982 284.747C477.769 286.089 478.163 287.689 478.163 289.548C478.163 291.555 477.665 293.346 476.668 294.922C475.683 296.485 474.224 297.723 472.291 298.634C470.358 299.545 467.976 300 465.145 300H448.987ZM456.983 293.463H463.501C465.73 293.463 467.355 293.038 468.376 292.189C469.398 291.327 469.909 290.182 469.909 288.754C469.909 287.708 469.657 286.785 469.152 285.984C468.647 285.184 467.927 284.556 466.992 284.101C466.068 283.645 464.966 283.418 463.686 283.418H456.983V293.463ZM456.983 278.007H462.911C464.006 278.007 464.979 277.816 465.828 277.435C466.69 277.041 467.367 276.487 467.859 275.773C468.364 275.059 468.617 274.203 468.617 273.206C468.617 271.839 468.13 270.738 467.158 269.901C466.197 269.063 464.831 268.645 463.058 268.645H456.983V278.007ZM523.839 281.091C523.839 285.215 523.057 288.723 521.494 291.616C519.943 294.509 517.825 296.719 515.142 298.246C512.47 299.76 509.466 300.517 506.13 300.517C502.769 300.517 499.753 299.754 497.082 298.227C494.41 296.701 492.299 294.491 490.748 291.598C489.197 288.705 488.421 285.203 488.421 281.091C488.421 276.967 489.197 273.458 490.748 270.565C492.299 267.672 494.41 265.469 497.082 263.955C499.753 262.428 502.769 261.665 506.13 261.665C509.466 261.665 512.47 262.428 515.142 263.955C517.825 265.469 519.943 267.672 521.494 270.565C523.057 273.458 523.839 276.967 523.839 281.091ZM515.732 281.091C515.732 278.42 515.332 276.167 514.532 274.332C513.744 272.498 512.63 271.107 511.19 270.159C509.75 269.211 508.063 268.737 506.13 268.737C504.197 268.737 502.511 269.211 501.071 270.159C499.63 271.107 498.51 272.498 497.71 274.332C496.922 276.167 496.528 278.42 496.528 281.091C496.528 283.762 496.922 286.015 497.71 287.849C498.51 289.684 499.63 291.075 501.071 292.023C502.511 292.971 504.197 293.445 506.13 293.445C508.063 293.445 509.75 292.971 511.19 292.023C512.63 291.075 513.744 289.684 514.532 287.849C515.332 286.015 515.732 283.762 515.732 281.091ZM535.482 300V262.182H550.402C553.258 262.182 555.696 262.693 557.715 263.714C559.746 264.724 561.291 266.158 562.35 268.017C563.421 269.864 563.956 272.036 563.956 274.536C563.956 277.047 563.415 279.207 562.331 281.017C561.248 282.814 559.678 284.193 557.623 285.153C555.579 286.114 553.105 286.594 550.199 286.594H540.209V280.168H548.907C550.433 280.168 551.701 279.958 552.711 279.54C553.72 279.121 554.471 278.493 554.963 277.656C555.468 276.819 555.721 275.779 555.721 274.536C555.721 273.28 555.468 272.221 554.963 271.359C554.471 270.498 553.714 269.845 552.692 269.402C551.683 268.946 550.409 268.719 548.87 268.719H543.478V300H535.482ZM555.905 282.79L565.304 300H556.478L547.282 282.79H555.905ZM607.356 286.852H614.152L617.568 291.247L620.929 295.162L627.262 303.102H619.802L615.444 297.747L613.21 294.571L607.356 286.852ZM627.835 281.091C627.835 285.215 627.053 288.723 625.49 291.616C623.939 294.509 621.821 296.719 619.137 298.246C616.466 299.76 613.462 300.517 610.126 300.517C606.765 300.517 603.749 299.754 601.078 298.227C598.406 296.701 596.295 294.491 594.744 291.598C593.193 288.705 592.417 285.203 592.417 281.091C592.417 276.967 593.193 273.458 594.744 270.565C596.295 267.672 598.406 265.469 601.078 263.955C603.749 262.428 606.765 261.665 610.126 261.665C613.462 261.665 616.466 262.428 619.137 263.955C621.821 265.469 623.939 267.672 625.49 270.565C627.053 273.458 627.835 276.967 627.835 281.091ZM619.728 281.091C619.728 278.42 619.328 276.167 618.528 274.332C617.74 272.498 616.626 271.107 615.186 270.159C613.745 269.211 612.059 268.737 610.126 268.737C608.193 268.737 606.507 269.211 605.066 270.159C603.626 271.107 602.506 272.498 601.706 274.332C600.918 276.167 600.524 278.42 600.524 281.091C600.524 283.762 600.918 286.015 601.706 287.849C602.506 289.684 603.626 291.075 605.066 292.023C606.507 292.971 608.193 293.445 610.126 293.445C612.059 293.445 613.745 292.971 615.186 292.023C616.626 291.075 617.74 289.684 618.528 287.849C619.328 286.015 619.728 283.762 619.728 281.091ZM662.837 262.182H670.833V286.741C670.833 289.499 670.174 291.912 668.857 293.98C667.552 296.048 665.724 297.661 663.373 298.818C661.021 299.963 658.282 300.536 655.155 300.536C652.016 300.536 649.271 299.963 646.92 298.818C644.568 297.661 642.74 296.048 641.435 293.98C640.13 291.912 639.478 289.499 639.478 286.741V262.182H647.474V286.058C647.474 287.499 647.788 288.779 648.415 289.899C649.056 291.019 649.954 291.9 651.111 292.54C652.269 293.18 653.617 293.5 655.155 293.5C656.707 293.5 658.055 293.18 659.199 292.54C660.357 291.9 661.249 291.019 661.877 289.899C662.517 288.779 662.837 287.499 662.837 286.058V262.182ZM683.131 300V262.182H708.614V268.774H691.127V277.786H707.303V284.378H691.127V293.408H708.688V300H683.131ZM745.279 262.182L754.419 290.915H754.77L763.929 262.182H772.793L759.756 300H749.452L736.397 262.182H745.279ZM815.685 281.091C815.685 285.215 814.903 288.723 813.34 291.616C811.789 294.509 809.671 296.719 806.987 298.246C804.316 299.76 801.312 300.517 797.976 300.517C794.615 300.517 791.599 299.754 788.928 298.227C786.256 296.701 784.145 294.491 782.594 291.598C781.043 288.705 780.267 285.203 780.267 281.091C780.267 276.967 781.043 273.458 782.594 270.565C784.145 267.672 786.256 265.469 788.928 263.955C791.599 262.428 794.615 261.665 797.976 261.665C801.312 261.665 804.316 262.428 806.987 263.955C809.671 265.469 811.789 267.672 813.34 270.565C814.903 273.458 815.685 276.967 815.685 281.091ZM807.578 281.091C807.578 278.42 807.178 276.167 806.378 274.332C805.59 272.498 804.476 271.107 803.036 270.159C801.595 269.211 799.909 268.737 797.976 268.737C796.043 268.737 794.357 269.211 792.916 270.159C791.476 271.107 790.356 272.498 789.556 274.332C788.768 276.167 788.374 278.42 788.374 281.091C788.374 283.762 788.768 286.015 789.556 287.849C790.356 289.684 791.476 291.075 792.916 292.023C794.357 292.971 796.043 293.445 797.976 293.445C799.909 293.445 801.595 292.971 803.036 292.023C804.476 291.075 805.59 289.684 806.378 287.849C807.178 286.015 807.578 283.762 807.578 281.091ZM860.696 275.422H852.608C852.46 274.375 852.158 273.446 851.703 272.634C851.247 271.809 850.663 271.107 849.949 270.528C849.235 269.95 848.41 269.507 847.474 269.199C846.551 268.891 845.548 268.737 844.464 268.737C842.507 268.737 840.802 269.223 839.349 270.196C837.897 271.156 836.77 272.56 835.97 274.406C835.17 276.241 834.77 278.469 834.77 281.091C834.77 283.787 835.17 286.052 835.97 287.886C836.782 289.721 837.915 291.106 839.368 292.041C840.82 292.977 842.501 293.445 844.409 293.445C845.48 293.445 846.471 293.303 847.382 293.02C848.305 292.737 849.124 292.324 849.838 291.783C850.552 291.229 851.143 290.558 851.611 289.77C852.091 288.982 852.423 288.083 852.608 287.074L860.696 287.111C860.487 288.847 859.963 290.521 859.126 292.134C858.301 293.734 857.187 295.168 855.784 296.436C854.393 297.692 852.731 298.689 850.798 299.428C848.878 300.154 846.705 300.517 844.28 300.517C840.906 300.517 837.89 299.754 835.231 298.227C832.585 296.701 830.492 294.491 828.953 291.598C827.426 288.705 826.663 285.203 826.663 281.091C826.663 276.967 827.439 273.458 828.99 270.565C830.541 267.672 832.646 265.469 835.305 263.955C837.964 262.428 840.956 261.665 844.28 261.665C846.471 261.665 848.502 261.973 850.373 262.588C852.257 263.204 853.925 264.102 855.378 265.284C856.83 266.454 858.012 267.888 858.923 269.587C859.846 271.286 860.437 273.231 860.696 275.422ZM872.149 300V262.182H897.632V268.774H880.145V277.786H896.321V284.378H880.145V293.408H897.706V300H872.149ZM888.658 258.784L884.946 254.278L881.235 258.784H874.532V258.526L882.01 250.401H887.864L895.361 258.526V258.784H888.658ZM927.464 262.182H937.325L947.74 287.591H948.183L958.598 262.182H968.459V300H960.703V275.385H960.389L950.602 299.815H945.321L935.534 275.293H935.22V300H927.464V262.182ZM980.766 300V262.182H1006.25V268.774H988.762V277.786H1004.94V284.378H988.762V293.408H1006.32V300H980.766ZM1018.33 300V262.182H1033.25C1036.1 262.182 1038.54 262.693 1040.56 263.714C1042.59 264.724 1044.14 266.158 1045.19 268.017C1046.27 269.864 1046.8 272.036 1046.8 274.536C1046.8 277.047 1046.26 279.207 1045.18 281.017C1044.09 282.814 1042.52 284.193 1040.47 285.153C1038.42 286.114 1035.95 286.594 1033.04 286.594H1023.05V280.168H1031.75C1033.28 280.168 1034.55 279.958 1035.55 279.54C1036.56 279.121 1037.32 278.493 1037.81 277.656C1038.31 276.819 1038.56 275.779 1038.56 274.536C1038.56 273.28 1038.31 272.221 1037.81 271.359C1037.32 270.498 1036.56 269.845 1035.54 269.402C1034.53 268.946 1033.25 268.719 1031.71 268.719H1026.32V300H1018.33ZM1038.75 282.79L1048.15 300H1039.32L1030.13 282.79H1038.75ZM1058.17 300V262.182H1083.65V268.774H1066.17V277.786H1082.34V284.378H1066.17V293.408H1083.73V300H1058.17ZM1129.1 275.422H1121.01C1120.86 274.375 1120.56 273.446 1120.11 272.634C1119.65 271.809 1119.07 271.107 1118.35 270.528C1117.64 269.95 1116.81 269.507 1115.88 269.199C1114.95 268.891 1113.95 268.737 1112.87 268.737C1110.91 268.737 1109.21 269.223 1107.75 270.196C1106.3 271.156 1105.17 272.56 1104.37 274.406C1103.57 276.241 1103.17 278.469 1103.17 281.091C1103.17 283.787 1103.57 286.052 1104.37 287.886C1105.19 289.721 1106.32 291.106 1107.77 292.041C1109.22 292.977 1110.9 293.445 1112.81 293.445C1113.88 293.445 1114.87 293.303 1115.79 293.02C1116.71 292.737 1117.53 292.324 1118.24 291.783C1118.96 291.229 1119.55 290.558 1120.01 289.77C1120.49 288.982 1120.83 288.083 1121.01 287.074L1129.1 287.111C1128.89 288.847 1128.37 290.521 1127.53 292.134C1126.7 293.734 1125.59 295.168 1124.19 296.436C1122.8 297.692 1121.13 298.689 1119.2 299.428C1117.28 300.154 1115.11 300.517 1112.68 300.517C1109.31 300.517 1106.29 299.754 1103.63 298.227C1100.99 296.701 1098.89 294.491 1097.36 291.598C1095.83 288.705 1095.07 285.203 1095.07 281.091C1095.07 276.967 1095.84 273.458 1097.39 270.565C1098.94 267.672 1101.05 265.469 1103.71 263.955C1106.37 262.428 1109.36 261.665 1112.68 261.665C1114.87 261.665 1116.91 261.973 1118.78 262.588C1120.66 263.204 1122.33 264.102 1123.78 265.284C1125.23 266.454 1126.42 267.888 1127.33 269.587C1128.25 271.286 1128.84 273.231 1129.1 275.422ZM1140.55 300V262.182H1166.04V268.774H1148.55V277.786H1164.72V284.378H1148.55V293.408H1166.11V300H1140.55Z" fill="black"/>
<path d="M312.702 81.521C314.373 81.521 316.103 81.9983 317.893 82.953C319.802 83.7883 321.234 84.922 322.189 86.354L365.686 153.3L356.736 152.942L401.307 86.354C403.574 83.132 406.498 81.521 410.078 81.521C412.942 81.521 415.508 82.5353 417.775 84.564C420.042 86.5927 421.176 89.218 421.176 92.44V196.081C421.176 199.184 420.162 201.809 418.133 203.957C416.104 205.986 413.419 207 410.078 207C406.737 207 403.992 205.986 401.844 203.957C399.815 201.809 398.801 199.184 398.801 196.081V111.772L405.782 113.383L369.266 169.052C368.192 170.365 366.82 171.498 365.149 172.453C363.598 173.408 361.987 173.825 360.316 173.706C358.765 173.825 357.154 173.408 355.483 172.453C353.932 171.498 352.619 170.365 351.545 169.052L317.356 114.994L322.01 105.507V196.081C322.01 199.184 321.055 201.809 319.146 203.957C317.237 205.986 314.731 207 311.628 207C308.645 207 306.198 205.986 304.289 203.957C302.38 201.809 301.425 199.184 301.425 196.081V92.44C301.425 89.4567 302.499 86.891 304.647 84.743C306.914 82.595 309.599 81.521 312.702 81.521ZM558.35 81.163C561.095 81.163 563.541 82.237 565.689 84.385C567.956 86.4137 569.09 89.039 569.09 92.261C569.09 93.335 568.911 94.4687 568.553 95.662C568.314 96.736 567.837 97.81 567.121 98.884L526.488 157.059L529.71 144.708V196.081C529.71 199.184 528.636 201.809 526.488 203.957C524.459 205.986 522.073 207 519.328 207C516.345 207 513.779 205.986 511.631 203.957C509.602 201.809 508.588 199.184 508.588 196.081V146.14L510.02 151.868L471.356 100.495C470.163 98.9437 469.327 97.452 468.85 96.02C468.373 94.588 468.134 93.2753 468.134 92.082C468.134 88.86 469.387 86.2347 471.893 84.206C474.399 82.1773 476.965 81.163 479.59 81.163C482.931 81.163 485.855 82.8337 488.361 86.175L522.729 133.61L517.717 132.894L549.4 86.533C551.906 82.953 554.889 81.163 558.35 81.163Z" fill="black"/>
<path d="M626.854 207C623.513 207 620.768 205.986 618.62 203.957C616.591 201.809 615.577 199.184 615.577 196.081V92.619C615.577 89.5163 616.591 86.9507 618.62 84.922C620.768 82.774 623.393 81.7 626.496 81.7H684.671C687.774 81.7 690.339 82.7143 692.368 84.743C694.516 86.6523 695.59 89.1583 695.59 92.261C695.59 94.8863 694.516 97.2133 692.368 99.242C690.339 101.271 687.774 102.285 684.671 102.285H636.341L637.952 100.137V136.116L636.699 133.789H676.616C679.719 133.789 682.284 134.803 684.313 136.832C686.461 138.741 687.535 141.247 687.535 144.35C687.535 146.975 686.461 149.302 684.313 151.331C682.284 153.36 679.719 154.374 676.616 154.374H636.341L637.952 152.763V196.081C637.952 199.184 636.818 201.809 634.551 203.957C632.403 205.986 629.837 207 626.854 207ZM860.222 144.35C860.222 153.3 858.731 161.653 855.747 169.41C852.764 177.167 848.528 184.028 843.038 189.995C837.668 195.842 831.224 200.437 823.706 203.778C816.308 207.119 808.193 208.79 799.362 208.79C790.532 208.79 782.417 207.119 775.018 203.778C767.62 200.437 761.176 195.842 755.686 189.995C750.316 184.028 746.14 177.167 743.156 169.41C740.173 161.653 738.681 153.3 738.681 144.35C738.681 135.4 740.173 127.047 743.156 119.29C746.14 111.533 750.316 104.731 755.686 98.884C761.176 92.9173 767.62 88.2633 775.018 84.922C782.417 81.5807 790.532 79.91 799.362 79.91C808.193 79.91 816.308 81.5807 823.706 84.922C831.224 88.2633 837.668 92.9173 843.038 98.884C848.528 104.731 852.764 111.533 855.747 119.29C858.731 127.047 860.222 135.4 860.222 144.35ZM836.952 144.35C836.952 136.355 835.341 129.135 832.119 122.691C828.897 116.128 824.482 110.937 818.873 107.118C813.265 103.299 806.761 101.39 799.362 101.39C791.964 101.39 785.46 103.299 779.851 107.118C774.243 110.937 769.827 116.068 766.605 122.512C763.503 128.956 761.951 136.235 761.951 144.35C761.951 152.345 763.503 159.625 766.605 166.188C769.827 172.632 774.243 177.763 779.851 181.582C785.46 185.401 791.964 187.31 799.362 187.31C806.761 187.31 813.265 185.401 818.873 181.582C824.482 177.763 828.897 172.632 832.119 166.188C835.341 159.625 836.952 152.345 836.952 144.35ZM922.477 81.521C924.147 81.521 925.878 81.9983 927.668 82.953C929.577 83.7883 931.009 84.922 931.964 86.354L975.461 153.3L966.511 152.942L1011.08 86.354C1013.35 83.132 1016.27 81.521 1019.85 81.521C1022.72 81.521 1025.28 82.5353 1027.55 84.564C1029.82 86.5927 1030.95 89.218 1030.95 92.44V196.081C1030.95 199.184 1029.94 201.809 1027.91 203.957C1025.88 205.986 1023.19 207 1019.85 207C1016.51 207 1013.77 205.986 1011.62 203.957C1009.59 201.809 1008.58 199.184 1008.58 196.081V111.772L1015.56 113.383L979.041 169.052C977.967 170.365 976.594 171.498 974.924 172.453C973.372 173.408 971.761 173.825 970.091 173.706C968.539 173.825 966.928 173.408 965.258 172.453C963.706 171.498 962.394 170.365 961.32 169.052L927.131 114.994L931.785 105.507V196.081C931.785 199.184 930.83 201.809 928.921 203.957C927.011 205.986 924.505 207 921.403 207C918.419 207 915.973 205.986 914.064 203.957C912.154 201.809 911.2 199.184 911.2 196.081V92.44C911.2 89.4567 912.274 86.891 914.422 84.743C916.689 82.595 919.374 81.521 922.477 81.521ZM1099.21 81.7H1159.17C1162.28 81.7 1164.84 82.7143 1166.87 84.743C1169.02 86.6523 1170.09 89.1583 1170.09 92.261C1170.09 95.2443 1169.02 97.6907 1166.87 99.6C1164.84 101.39 1162.28 102.285 1159.17 102.285H1109.05L1110.67 99.242V134.147L1109.23 132.715H1151.12C1154.22 132.715 1156.79 133.729 1158.82 135.758C1160.96 137.667 1162.04 140.173 1162.04 143.276C1162.04 146.259 1160.96 148.706 1158.82 150.615C1156.79 152.405 1154.22 153.3 1151.12 153.3H1109.77L1110.67 151.868V188.026L1109.23 186.415H1159.17C1162.28 186.415 1164.84 187.489 1166.87 189.637C1169.02 191.666 1170.09 194.052 1170.09 196.797C1170.09 199.78 1169.02 202.227 1166.87 204.136C1164.84 206.045 1162.28 207 1159.17 207H1099.21C1096.11 207 1093.48 205.986 1091.33 203.957C1089.31 201.809 1088.29 199.184 1088.29 196.081V92.619C1088.29 89.5163 1089.31 86.9507 1091.33 84.922C1093.48 82.774 1096.11 81.7 1099.21 81.7Z" fill="#FE0000"/>
<path d="M224.163 58.6102C222.939 58.6116 221.761 59.0766 220.866 59.9117C219.971 60.7468 219.426 61.8899 219.341 63.1108L215.84 115.796C215.825 115.903 215.812 116.01 215.804 116.118V125.869C215.801 126.51 215.926 127.146 216.172 127.739C216.417 128.332 216.778 128.87 217.234 129.322C217.689 129.774 218.23 130.131 218.824 130.372C219.419 130.613 220.056 130.734 220.697 130.727L233.949 130.544C235.083 130.53 236.177 130.119 237.039 129.381C237.9 128.643 238.475 127.626 238.664 126.507L247.593 73.2509C248.865 65.6701 242.85 58.6063 235.163 58.6063L224.163 58.6102Z" fill="#FE0000"/>
<path d="M196.731 38.7151C196.095 38.7126 195.465 38.8357 194.877 39.0767C194.289 39.3177 193.754 39.672 193.303 40.1198C192.852 40.5676 192.494 41.1001 192.248 41.6864C192.003 42.2727 191.875 42.9015 191.873 43.5371V125.868C191.871 126.507 191.995 127.14 192.238 127.73C192.481 128.321 192.839 128.858 193.29 129.309C193.742 129.761 194.279 130.118 194.869 130.361C195.459 130.604 196.092 130.729 196.731 130.726H220.662C221.298 130.724 221.927 130.596 222.513 130.351C223.099 130.106 223.632 129.747 224.08 129.296C224.527 128.845 224.882 128.31 225.123 127.722C225.364 127.134 225.487 126.504 225.484 125.868V116.296L230.306 43.8585C230.348 43.1994 230.254 42.5384 230.031 41.9169C229.807 41.2954 229.459 40.7267 229.007 40.2448C228.555 39.763 228.01 39.3783 227.404 39.1152C226.798 38.8522 226.145 38.7161 225.484 38.7151H196.731Z" fill="#FE0000"/>
<path d="M174.979 15.8195C174.34 15.817 173.707 15.9412 173.117 16.1845C172.527 16.4277 171.99 16.7855 171.539 17.237C171.087 17.6886 170.729 18.2249 170.486 18.8154C170.243 19.4058 170.119 20.0386 170.121 20.6772V125.868C170.119 126.507 170.243 127.14 170.486 127.73C170.729 128.321 171.087 128.858 171.539 129.309C171.99 129.761 172.527 130.118 173.117 130.361C173.707 130.604 174.34 130.729 174.979 130.726H203.732C204.371 130.729 205.004 130.604 205.594 130.361C206.185 130.118 206.721 129.761 207.173 129.309C207.624 128.858 207.982 128.321 208.225 127.73C208.469 127.14 208.592 126.507 208.59 125.868V20.6772C208.592 20.0386 208.469 19.4058 208.225 18.8154C207.982 18.2249 207.624 17.6886 207.173 17.237C206.721 16.7855 206.185 16.4277 205.594 16.1845C205.004 15.9412 204.371 15.817 203.732 15.8195H174.979Z" fill="#FE0000"/>
<path d="M141.188 25.9276C140.479 25.7635 139.741 25.762 139.031 25.9225C138.321 26.0831 137.656 26.4014 137.086 26.8546C136.516 27.3078 136.056 27.8842 135.739 28.54C135.423 29.1959 135.259 29.9142 135.259 30.6424V49.6804V171.695C135.261 172.331 135.389 172.96 135.634 173.546C135.879 174.133 136.238 174.665 136.689 175.112C137.14 175.56 137.675 175.915 138.263 176.156C138.851 176.397 139.481 176.519 140.117 176.517H174.978C176.255 176.513 177.479 176.003 178.383 175.1C179.286 174.197 179.795 172.973 179.8 171.695V116.117V38.7148C179.8 37.6207 179.429 36.559 178.748 35.7027C178.067 34.8465 177.115 34.2461 176.049 33.9999L141.188 25.9276Z" fill="#FE0000"/>
<path d="M44.9624 0.246345L15.566 9.92608C14.4975 10.2779 13.585 10.9908 12.9853 11.9425C12.3856 12.8942 12.1361 14.0253 12.2799 15.141L25.9244 116.76C26.0758 117.924 26.6446 118.993 27.525 119.768C28.4055 120.543 29.5376 120.972 30.7107 120.975H58.9284C59.6089 120.972 60.2811 120.826 60.9012 120.545C61.5212 120.265 62.0752 119.857 62.5268 119.348C62.9785 118.839 63.3178 118.24 63.5225 117.591C63.7271 116.942 63.7926 116.258 63.7147 115.582L51.2846 4.28254C51.2016 3.56926 50.9608 2.88375 50.5798 2.27505C50.1989 1.66635 49.6872 1.14956 49.0819 0.763148C48.4766 0.376736 47.7929 0.130369 47.0804 0.0409634C46.3679 -0.0484424 45.6444 0.0214562 44.9624 0.246345Z" fill="#FE0000"/>
<path d="M117.828 6.6039L80.8239 16.2836C79.7783 16.5587 78.855 17.1762 78.2011 18.0372C77.5473 18.8982 77.2006 19.9532 77.2163 21.0342L77.7163 78.7554C77.7175 79.7986 78.0558 80.8133 78.6807 81.6486L96.7185 105.58V177.446C96.7208 178.081 96.8482 178.711 97.0936 179.297C97.3389 179.883 97.6974 180.415 98.1485 180.863C98.5996 181.311 99.1345 181.666 99.7226 181.907C100.311 182.148 100.941 182.27 101.576 182.268H119.043C120.32 182.263 121.544 181.754 122.447 180.851C123.351 179.948 123.86 178.723 123.865 177.446V11.283C123.863 10.5464 123.694 9.82005 123.369 9.1589C123.044 8.49774 122.572 7.91915 121.99 7.46785C121.408 7.01654 120.73 6.70397 120.009 6.55423C119.288 6.40449 118.542 6.42165 117.828 6.6039Z" fill="#FE0000"/>
<path d="M49.9632 31.2499C49.2797 31.2478 48.6036 31.3909 47.9792 31.669C47.3549 31.9472 46.7965 32.3544 46.3409 32.8639C45.8854 33.3735 45.5429 33.9738 45.3361 34.6253C45.1294 35.2768 45.0629 35.9644 45.1412 36.6434L54.1066 116.653C54.2344 117.842 54.7978 118.941 55.6882 119.739C56.5786 120.537 57.7329 120.978 58.9286 120.975H72.7874C73.426 120.977 74.0588 120.854 74.6493 120.611C75.2398 120.367 75.7763 120.01 76.2278 119.558C76.6794 119.106 77.0371 118.57 77.2804 117.979C77.5236 117.389 77.6476 116.756 77.6451 116.117V83.5776H82.5386C83.1802 83.5801 83.8159 83.4553 84.4088 83.2098C85.0016 82.9643 85.5397 82.6031 85.9918 82.1478C86.4438 81.6924 86.8008 81.1518 87.0419 80.5572C87.283 79.9625 87.4035 79.3258 87.3963 78.6842L87.0035 36.0362C86.9896 34.7649 86.476 33.5503 85.5737 32.6546C84.6714 31.759 83.4528 31.2543 82.1815 31.2499H49.9632Z" fill="#FE0000"/>
<path d="M72.7873 73.8976C71.5099 73.9021 70.286 74.4118 69.3827 75.3151C68.4793 76.2185 67.9699 77.4421 67.9653 78.7196V177.446C67.9699 178.723 68.4793 179.947 69.3827 180.851C70.286 181.754 71.5099 182.263 72.7873 182.268H101.577C102.854 182.263 104.078 181.754 104.981 180.851C105.885 179.947 106.394 178.723 106.399 177.446V78.7196C106.394 77.4421 105.885 76.2185 104.981 75.3151C104.078 74.4118 102.854 73.9021 101.577 73.8976H72.7873Z" fill="#FE0000"/>
<path d="M119.043 44.8585C117.766 44.863 116.542 45.3727 115.639 46.276C114.735 47.1794 114.226 48.403 114.221 49.6805V185.304C114.219 185.94 114.342 186.569 114.583 187.157C114.824 187.746 115.178 188.281 115.626 188.732C116.074 189.183 116.606 189.541 117.192 189.787C117.779 190.032 118.408 190.159 119.043 190.162H147.832C148.468 190.159 149.097 190.032 149.683 189.787C150.27 189.541 150.802 189.183 151.25 188.732C151.697 188.281 152.052 187.746 152.293 187.157C152.534 186.569 152.657 185.94 152.654 185.304V49.6805C152.65 48.403 152.14 47.1794 151.237 46.276C150.334 45.3727 149.11 44.863 147.832 44.8585H119.043Z" fill="#FE0000"/>
<path d="M12.6014 58.6107C4.91463 58.6107 -1.10038 65.6744 0.17138 73.2553C3.65285 94.0091 7.48003 114.647 10.3155 135.298C10.447 136.219 10.8412 137.083 11.4509 137.786C12.0606 138.489 12.86 139.001 13.7533 139.261C14.6466 139.521 15.5959 139.518 16.4876 139.252C17.3792 138.986 18.1754 138.47 18.7808 137.763L34.4255 119.261C34.8656 118.743 35.1917 118.138 35.3825 117.486C35.5733 116.834 35.6245 116.148 35.5328 115.475L28.4606 62.7898C28.3005 61.6268 27.7231 60.5616 26.836 59.7927C25.9488 59.0239 24.8125 58.6039 23.6386 58.6107H12.6014Z" fill="#FE0000"/>
<path d="M22.2815 111.295C14.3162 111.295 8.03462 118.475 9.1013 126.368L30.0324 281.423C31.4651 292.025 40.5864 299.996 51.2849 299.996H95.5403C96.5266 299.997 97.4896 299.696 98.3004 299.135C99.1111 298.573 99.7308 297.777 100.077 296.853C103.692 287.239 112.928 280.387 123.865 280.387C134.802 280.387 144.13 287.27 148.082 296.996C148.448 297.887 149.072 298.649 149.874 299.184C150.676 299.718 151.619 300.001 152.583 299.996H196.445C207.144 299.996 216.301 292.025 217.734 281.423L238.665 126.368C239.731 118.475 233.45 111.295 225.484 111.295H174.978C173.788 111.292 172.638 111.727 171.749 112.517C170.859 113.308 170.292 114.399 170.156 115.581C168.849 127.291 165.797 141.086 158.905 151.479C152.013 161.871 141.815 169.195 123.865 169.195C105.915 169.195 95.753 161.871 88.8609 151.479C81.9687 141.086 78.9168 127.291 77.6095 115.581C77.4736 114.399 76.9066 113.308 76.0171 112.517C75.1275 111.727 73.9777 111.292 72.7875 111.295H22.2815Z" fill="#FE0000"/>
<path d="M206.126 111.291C214.092 111.291 220.377 118.471 219.31 126.365L198.377 281.42C196.944 292.022 187.793 300 177.094 300H196.449C207.147 300 216.299 292.022 217.732 281.42L238.664 126.365C239.731 118.471 233.446 111.291 225.481 111.291H206.126Z" fill="#FE0000"/>
<path d="M20.7827 212.913L25.026 244.345H85.1787C86.4571 244.343 87.6825 243.835 88.5873 242.932C89.4921 242.028 90.0028 240.804 90.0079 239.526V217.733C90.0028 216.454 89.4921 215.23 88.5873 214.327C87.6825 213.424 86.4571 212.916 85.1787 212.913H20.7827ZM162.588 212.913C161.31 212.916 160.084 213.424 159.179 214.327C158.275 215.23 157.764 216.454 157.759 217.733V239.526C157.764 240.804 158.275 242.028 159.179 242.932C160.084 243.835 161.31 244.343 162.588 244.345H222.741L226.984 212.913H162.588Z" fill="#FE0000"/>
<path d="M20.7827 212.913L22.0868 222.59H85.1786C86.457 222.593 87.6824 223.101 88.5872 224.004C89.492 224.907 90.0027 226.132 90.0079 227.41V217.733C90.0028 216.454 89.4921 215.23 88.5872 214.327C87.6824 213.424 86.457 212.916 85.1786 212.913H20.7827ZM162.588 212.913C161.31 212.916 160.084 213.424 159.179 214.327C158.275 215.23 157.764 216.454 157.759 217.733V227.41C157.764 226.132 158.275 224.907 159.179 224.004C160.084 223.101 161.31 222.593 162.588 222.59H225.68L226.984 212.913H162.588Z" fill="#FE0000"/>
<path d="M123.868 188.701C115.151 188.706 106.95 192.645 101.471 199.323C94.2031 200.068 89.525 201.173 86.0001 203.236C82.1609 205.483 80.3203 209.886 80.3203 212.913V241.917C80.3203 249.875 86.9065 256.452 94.8647 256.452H152.9C160.859 256.452 167.445 249.875 167.445 241.917V212.913C167.445 209.891 165.597 205.526 161.765 203.274C158.245 201.205 153.567 200.059 146.313 199.314C140.829 192.639 132.614 188.702 123.897 188.701C123.887 188.701 123.878 188.701 123.868 188.701Z" fill="#FE0000"/>
<path d="M123.868 188.701C115.151 188.706 106.95 192.645 101.471 199.323C94.2031 200.068 89.525 201.172 86.0001 203.236C82.1609 205.482 80.3203 209.886 80.3203 212.913V218.876C104.551 212.384 123.8 214.14 142.411 222.629C146.243 224.881 148.09 229.246 148.09 232.268V256.452H152.901C160.859 256.452 167.445 249.875 167.445 241.917V212.913C167.445 209.891 165.597 205.526 161.765 203.274C158.245 201.205 153.567 200.059 146.314 199.314C140.829 192.639 132.614 188.703 123.897 188.701C123.887 188.701 123.879 188.701 123.868 188.701Z" fill="#FE0000"/>
<path d="M207.629 212.913L203.386 244.345H222.74L226.984 212.913H207.629Z" fill="#FE0000"/>
<path d="M196.449 300C207.148 300 216.299 292.022 217.732 281.42L238.646 126.507H238.665L247.596 73.2532C248.867 65.6723 242.855 58.6143 235.168 58.6143H229.328L230.31 43.862C230.486 41.0782 228.271 38.7158 225.481 38.7114H208.593V20.6798C208.603 17.9928 206.423 15.8119 203.736 15.8222H174.978C172.29 15.8125 170.11 17.9928 170.12 20.6798V32.6347L141.192 25.9248C138.159 25.2244 135.257 27.5277 135.257 30.6406V44.8543H123.869V11.2859C123.863 8.13166 120.886 5.82759 117.83 6.60792L80.8218 16.2853C78.6962 16.8449 77.2215 18.7653 77.2212 20.9633V31.2455H54.2942L51.2889 4.28313C51.0009 1.81027 48.9199 0.0575441 46.592 0.00199613C46.0548 -0.0125199 45.5116 0.0674899 44.966 0.247489L15.5654 9.92484C13.3614 10.6509 11.98 12.8402 12.2766 15.1415L18.117 58.614H12.5979C4.91116 58.614 -1.10121 65.672 0.170438 73.2529L9.10123 126.507H9.12061L30.0347 281.42C31.4673 292.022 40.5904 300 51.2889 300L94.8654 299.924C97.1058 300.244 99.2687 298.968 100.073 296.853C103.688 287.239 112.932 280.39 123.869 280.39C134.806 280.39 144.079 287.239 147.694 296.853C148.501 298.965 150.663 300.236 152.901 299.915L196.449 300ZM42.3199 11.2856L53.5093 111.291H34.9768L22.4265 17.8537L42.3199 11.2856ZM114.22 17.5702V168.382C111.376 167.874 108.778 167.14 106.395 166.199V78.7152C106.385 76.056 104.234 73.9048 101.575 73.8954H87.3423L86.8603 36.0366V24.7148L114.22 17.5702ZM179.797 25.4992H198.906V38.7111H196.732C194.059 38.7014 191.884 40.8671 191.875 43.5403V111.291H179.797V25.4992ZM144.943 36.717L170.12 42.5764V115.903C168.793 127.544 165.732 141.177 158.902 151.475C157.079 154.223 155.022 156.757 152.655 158.998V49.6832C152.646 47.0239 150.494 44.8635 147.835 44.8539H144.943V36.717ZM55.3805 40.932H77.2207V45.7895H77.3058L77.6555 73.8954H72.7885C70.1292 73.9051 67.9781 76.056 67.9687 78.7152V111.291H63.234L55.3805 40.932ZM220.302 48.3979L216.144 111.291H201.552V48.3979H220.302ZM123.869 54.5407H142.978V165.509C137.79 167.853 131.542 169.195 123.869 169.195V54.5407ZM12.5979 68.2913H19.4118L25.1861 111.291H22.2847C20.2557 111.291 18.3313 111.761 16.6144 112.586L9.74387 71.6462C9.43129 69.7821 10.7077 68.2913 12.5979 68.2913ZM228.685 68.2913H235.168C237.058 68.2913 238.334 69.7828 238.022 71.6462L231.151 112.586C229.53 111.807 227.725 111.35 225.821 111.301L228.685 68.2913ZM77.646 83.5822H96.7172V160.443C93.6553 157.87 91.0906 154.833 88.8638 151.475C82.034 141.177 78.9729 127.544 77.646 115.903V83.5822ZM217.212 212.913H167.445C167.445 209.879 165.584 205.482 161.728 203.236C158.252 201.211 153.655 200.071 146.569 199.323L146.144 199.087C140.654 192.544 132.49 188.703 123.869 188.701C115.31 188.706 107.249 192.496 101.773 198.955L101.017 199.342C94.0274 200.092 89.4865 201.228 86.0382 203.236C82.1808 205.482 80.3206 209.879 80.3206 212.913H30.5446L18.6359 124.664C18.5726 122.602 20.1493 120.979 22.2839 120.979L68.5451 120.978C70.1617 132.533 73.4209 145.732 80.7836 156.833C89.0827 169.347 103.109 178.872 123.869 178.872C144.628 178.872 158.673 169.347 166.972 156.833C174.335 145.732 177.604 132.533 179.22 120.978H225.481C227.625 120.978 229.207 122.616 229.129 124.692L217.212 212.913ZM35.6194 135.239C35.2575 135.205 34.893 135.21 34.5326 135.258C31.8747 135.62 30.0178 138.074 30.3933 140.73L38.6058 201.45C38.9677 204.087 41.3915 205.936 44.0304 205.589C46.6711 205.232 48.526 202.807 48.1792 200.165L39.9572 139.445C39.6718 137.202 37.8704 135.455 35.6194 135.239ZM123.869 198.378H123.897C130.224 198.388 136.151 201.509 139.765 206.704C140.593 207.88 141.903 208.622 143.337 208.736C151.189 209.422 155.384 210.724 156.87 211.59C158.356 212.455 157.758 211.869 157.758 212.913V241.917C157.758 244.681 155.665 246.774 152.901 246.774H94.8651C92.1011 246.774 90.0075 244.681 90.0075 241.917V212.913C90.0075 211.869 89.4081 212.457 90.8958 211.59C92.3834 210.723 96.6107 209.422 104.467 208.736C105.888 208.608 107.19 207.871 108.011 206.704C111.623 201.511 117.545 198.392 123.869 198.378ZM31.8581 222.59H80.3205V234.668H33.4931L31.8581 222.59ZM167.445 222.59H215.907L214.272 234.668H167.445V222.59ZM34.7972 244.345H80.5284C81.7015 251.172 87.732 256.452 94.8649 256.452H152.901C160.034 256.452 166.064 251.172 167.237 244.345H212.959L208.12 280.135C207.326 286.01 202.377 290.313 196.449 290.313H155.396C149.659 278.69 137.651 270.703 123.869 270.703C110.087 270.703 98.1027 278.691 92.3699 290.313H51.2884C45.3598 290.313 40.4299 286.01 39.6359 280.135L34.7972 244.345ZM51.4018 252.104C51.0428 252.075 50.6814 252.085 50.3245 252.133C47.6669 252.49 45.8062 254.94 46.1757 257.596L47.7161 269.069C48.6058 275.667 54.3079 280.636 60.9658 280.636H65.8234C68.481 280.626 70.6328 278.474 70.6431 275.816C70.6538 273.144 68.4957 270.969 65.8234 270.959H60.9658C59.0788 270.959 57.57 269.653 57.3179 267.783L55.7869 256.282C55.485 254.034 53.6619 252.297 51.4018 252.104Z" fill="#FE0000"/>
<path d="M117.765 81.7103C114.54 81.9722 110.704 82.496 107.973 83.0198C83.8554 87.6175 64.3579 105.135 57.5585 128.24C55.9022 133.827 56.4543 137.523 59.2729 140.025C61.8009 142.237 56.2219 142.062 124.187 142.062C191.6 142.062 186.341 142.208 188.84 140.171C190.264 139.007 191.484 136.737 191.746 134.758C192.24 131.208 188.811 121.198 184.772 114.302C178.001 102.807 167.395 93.2628 155.249 87.7921C149.206 85.0568 142.522 83.1362 136.072 82.2632C132.904 81.8267 120.642 81.4484 117.765 81.7103ZM127.093 106.387C128.226 107.143 129.388 109.18 129.388 110.373C129.388 112.497 127.616 115 125.756 115.466C124.536 115.786 122.124 115.407 121.31 114.796C119.509 113.458 118.753 111.013 119.48 108.831C119.858 107.638 121.339 106.183 122.56 105.717C123.809 105.281 125.843 105.572 127.093 106.387ZM99.314 110.373C101.958 111.101 103.382 113.109 103.179 115.786C102.83 119.976 98.0355 121.897 94.781 119.161C93.0666 117.706 92.5727 115.087 93.6187 113.021C94.3161 111.654 95.0716 110.984 96.4664 110.461C97.8321 109.995 97.8902 109.995 99.314 110.373ZM153.157 111.188C153.68 111.537 154.349 112.352 154.668 112.963C156.383 116.368 154.029 120.267 150.281 120.296C148.363 120.325 147.142 119.743 146.038 118.288C145.341 117.386 145.225 116.95 145.225 115.32C145.225 113.167 145.864 111.915 147.52 110.868C148.799 110.082 151.821 110.228 153.157 111.188Z" fill="white"/>
<path d="M57.3259 155.186C54.9142 156.263 53.6356 158.096 53.3451 160.802C53.0545 163.567 55.1757 166.855 57.7327 167.641C58.2267 167.786 65.8107 167.99 75.051 168.048C90.5967 168.194 91.5846 168.223 93.9383 168.805C97.2508 169.649 100.04 171.074 102.655 173.228C109.6 178.96 114.86 180.91 120.439 179.892C123.984 179.222 127.209 177.534 132.73 173.402C136.478 170.58 138.164 169.707 141.592 168.746C143.685 168.164 144.614 168.135 167.163 167.99L190.554 167.815L191.571 167.175C196.598 164.032 195.959 156.961 190.496 154.982C189.595 154.662 177.885 154.604 124.013 154.604C58.8079 154.575 58.6335 154.575 57.3259 155.186Z" fill="white"/>
<path d="M59.28 181.619C57.6238 182.23 55.5607 184.122 54.6018 185.926C53.8463 187.352 53.8173 187.585 53.8463 191.484C53.8754 195.034 53.9625 195.878 54.6309 198.119C56.2 203.211 58.5536 207.023 62.4473 210.719C65.2078 213.309 68.1716 215.142 72.0072 216.568C77.1213 218.488 75.3779 218.43 125.734 218.343L171.209 218.256L173.447 217.615C184.517 214.443 192.014 206.645 194.165 196.024C194.92 192.415 194.688 187.905 193.671 185.955C192.683 184.064 191.346 182.812 189.341 181.881L187.685 181.154L165.659 181.212L143.605 181.299L141.687 182.201C140.641 182.696 138.142 184.238 136.108 185.606C130.442 189.476 126.664 191.164 121.87 191.921C118.761 192.444 113.123 192.153 110.334 191.339C107.196 190.466 102.779 188.196 99.4374 185.781C95.8633 183.22 94.665 182.474 92.631 181.892C90.3355 181.223 61.1688 180.979 59.28 181.619Z" fill="white"/>
<circle cx="98.1737" cy="114.992" r="5.47008" fill="#FE0000"/>
<circle cx="124.43" cy="110.615" r="5.47008" fill="#FE0000"/>
<circle cx="150.14" cy="114.992" r="5.47008" fill="#FE0000"/>
</svg>
