<svg width="1024" height="1024" viewBox="0 0 1024 1024" fill="none" xmlns="http://www.w3.org/2000/svg">
<path d="M250.8 666.08C252.88 667.12 254.08 668.76 254.4 671C254.8 673.24 254.24 675.28 252.72 677.12C251.68 678.56 250.32 679.36 248.64 679.52C247.04 679.68 245.4 679.36 243.72 678.56C241.8 677.68 239.76 677 237.6 676.52C235.52 676.04 233.32 675.8 231 675.8C226.68 675.8 222.8 676.48 219.36 677.84C216 679.2 213.12 681.16 210.72 683.72C208.32 686.2 206.48 689.16 205.2 692.6C204 696.04 203.4 699.84 203.4 704C203.4 708.88 204.08 713.12 205.44 716.72C206.88 720.32 208.84 723.32 211.32 725.72C213.8 728.12 216.72 729.92 220.08 731.12C223.44 732.24 227.08 732.8 231 732.8C233.16 732.8 235.32 732.6 237.48 732.2C239.64 731.8 241.72 731.08 243.72 730.04C245.4 729.24 247.04 728.96 248.64 729.2C250.32 729.44 251.72 730.28 252.84 731.72C254.44 733.72 255 735.8 254.52 737.96C254.12 740.04 252.92 741.56 250.92 742.52C248.84 743.56 246.68 744.44 244.44 745.16C242.28 745.8 240.08 746.28 237.84 746.6C235.6 747 233.32 747.2 231 747.2C225.24 747.2 219.76 746.28 214.56 744.44C209.44 742.6 204.84 739.88 200.76 736.28C196.76 732.68 193.6 728.2 191.28 722.84C188.96 717.4 187.8 711.12 187.8 704C187.8 697.84 188.84 692.16 190.92 686.96C193.08 681.76 196.08 677.28 199.92 673.52C203.84 669.68 208.44 666.72 213.72 664.64C219 662.48 224.76 661.4 231 661.4C234.52 661.4 237.96 661.8 241.32 662.6C244.68 663.4 247.84 664.56 250.8 666.08ZM318.594 680.6C320.674 680.6 322.394 681.28 323.754 682.64C325.114 684 325.794 685.76 325.794 687.92V738.68C325.794 740.76 325.114 742.52 323.754 743.96C322.394 745.32 320.674 746 318.594 746C316.514 746 314.794 745.32 313.434 743.96C312.074 742.52 311.394 740.76 311.394 738.68V732.8L314.034 733.88C314.034 734.92 313.474 736.2 312.354 737.72C311.234 739.16 309.714 740.6 307.794 742.04C305.874 743.48 303.594 744.72 300.954 745.76C298.394 746.72 295.594 747.2 292.554 747.2C287.034 747.2 282.034 745.8 277.554 743C273.074 740.12 269.514 736.2 266.874 731.24C264.314 726.2 263.034 720.44 263.034 713.96C263.034 707.4 264.314 701.64 266.874 696.68C269.514 691.64 273.034 687.72 277.434 684.92C281.834 682.04 286.714 680.6 292.074 680.6C295.514 680.6 298.674 681.12 301.554 682.16C304.434 683.2 306.914 684.52 308.994 686.12C311.154 687.72 312.794 689.36 313.914 691.04C315.114 692.64 315.714 694 315.714 695.12L311.394 696.68V687.92C311.394 685.84 312.074 684.12 313.434 682.76C314.794 681.32 316.514 680.6 318.594 680.6ZM294.354 734C297.874 734 300.954 733.12 303.594 731.36C306.234 729.6 308.274 727.2 309.714 724.16C311.234 721.12 311.994 717.72 311.994 713.96C311.994 710.12 311.234 706.68 309.714 703.64C308.274 700.6 306.234 698.2 303.594 696.44C300.954 694.68 297.874 693.8 294.354 693.8C290.914 693.8 287.874 694.68 285.234 696.44C282.594 698.2 280.514 700.6 278.994 703.64C277.554 706.68 276.834 710.12 276.834 713.96C276.834 717.72 277.554 721.12 278.994 724.16C280.514 727.2 282.594 729.6 285.234 731.36C287.874 733.12 290.914 734 294.354 734ZM374.626 680.6C380.226 680.6 385.226 682.04 389.626 684.92C394.106 687.72 397.626 691.6 400.186 696.56C402.826 701.52 404.146 707.28 404.146 713.84C404.146 720.4 402.826 726.2 400.186 731.24C397.626 736.2 394.146 740.12 389.746 743C385.426 745.8 380.546 747.2 375.106 747.2C371.906 747.2 368.906 746.68 366.106 745.64C363.306 744.6 360.826 743.28 358.666 741.68C356.586 740.08 354.946 738.48 353.746 736.88C352.626 735.2 352.066 733.8 352.066 732.68L355.786 731.12V762.68C355.786 764.76 355.106 766.48 353.746 767.84C352.386 769.28 350.666 770 348.586 770C346.506 770 344.786 769.32 343.426 767.96C342.066 766.6 341.386 764.84 341.386 762.68V689.12C341.386 687.04 342.066 685.32 343.426 683.96C344.786 682.52 346.506 681.8 348.586 681.8C350.666 681.8 352.386 682.52 353.746 683.96C355.106 685.32 355.786 687.04 355.786 689.12V695L353.746 693.92C353.746 692.88 354.306 691.64 355.426 690.2C356.546 688.68 358.066 687.2 359.986 685.76C361.906 684.24 364.106 683 366.586 682.04C369.146 681.08 371.826 680.6 374.626 680.6ZM372.826 693.8C369.306 693.8 366.226 694.68 363.586 696.44C360.946 698.2 358.866 700.6 357.346 703.64C355.906 706.6 355.186 710 355.186 713.84C355.186 717.6 355.906 721.04 357.346 724.16C358.866 727.2 360.946 729.6 363.586 731.36C366.226 733.12 369.306 734 372.826 734C376.346 734 379.386 733.12 381.946 731.36C384.586 729.6 386.626 727.2 388.066 724.16C389.586 721.04 390.346 717.6 390.346 713.84C390.346 710 389.586 706.6 388.066 703.64C386.626 700.6 384.586 698.2 381.946 696.44C379.386 694.68 376.346 693.8 372.826 693.8ZM423.938 746C421.858 746 420.138 745.32 418.778 743.96C417.418 742.52 416.738 740.76 416.738 738.68V689.12C416.738 687.04 417.418 685.32 418.778 683.96C420.138 682.52 421.858 681.8 423.938 681.8C426.018 681.8 427.738 682.52 429.098 683.96C430.458 685.32 431.138 687.04 431.138 689.12V700.4L430.298 692.36C431.178 690.44 432.298 688.76 433.658 687.32C435.098 685.8 436.698 684.56 438.458 683.6C440.218 682.56 442.098 681.8 444.098 681.32C446.098 680.84 448.098 680.6 450.098 680.6C452.498 680.6 454.498 681.28 456.098 682.64C457.778 684 458.618 685.6 458.618 687.44C458.618 690.08 457.938 692 456.578 693.2C455.218 694.32 453.738 694.88 452.138 694.88C450.618 694.88 449.218 694.6 447.938 694.04C446.738 693.48 445.338 693.2 443.738 693.2C442.298 693.2 440.818 693.56 439.298 694.28C437.858 694.92 436.498 695.96 435.218 697.4C434.018 698.84 433.018 700.64 432.218 702.8C431.498 704.88 431.138 707.36 431.138 710.24V738.68C431.138 740.76 430.458 742.52 429.098 743.96C427.738 745.32 426.018 746 423.938 746ZM482.329 738.68C482.329 740.76 481.649 742.52 480.289 743.96C478.929 745.32 477.209 746 475.129 746C473.049 746 471.329 745.32 469.969 743.96C468.609 742.52 467.929 740.76 467.929 738.68V689.12C467.929 687.04 468.609 685.32 469.969 683.96C471.329 682.52 473.049 681.8 475.129 681.8C477.209 681.8 478.929 682.52 480.289 683.96C481.649 685.32 482.329 687.04 482.329 689.12V738.68ZM475.009 674C472.289 674 470.369 673.56 469.249 672.68C468.129 671.8 467.569 670.24 467.569 668V665.72C467.569 663.4 468.169 661.84 469.369 661.04C470.649 660.16 472.569 659.72 475.129 659.72C477.929 659.72 479.889 660.16 481.009 661.04C482.129 661.92 482.689 663.48 482.689 665.72V668C482.689 670.32 482.089 671.92 480.889 672.8C479.689 673.6 477.729 674 475.009 674ZM525.688 680.6C530.248 680.6 534.208 681.08 537.568 682.04C541.008 683 543.648 684.36 545.488 686.12C547.408 687.8 548.368 689.84 548.368 692.24C548.368 693.84 547.888 695.36 546.928 696.8C545.968 698.16 544.568 698.84 542.728 698.84C541.448 698.84 540.368 698.68 539.488 698.36C538.688 697.96 537.968 697.48 537.328 696.92C536.688 696.36 535.928 695.84 535.048 695.36C534.248 694.88 533.008 694.52 531.328 694.28C529.728 693.96 528.528 693.8 527.728 693.8C523.648 693.8 520.168 694.68 517.288 696.44C514.488 698.2 512.328 700.6 510.808 703.64C509.288 706.6 508.528 710.04 508.528 713.96C508.528 717.8 509.288 721.24 510.808 724.28C512.408 727.24 514.568 729.6 517.288 731.36C520.088 733.12 523.288 734 526.888 734C528.888 734 530.608 733.88 532.048 733.64C533.488 733.4 534.688 733.04 535.648 732.56C536.768 731.92 537.768 731.24 538.648 730.52C539.528 729.8 540.848 729.44 542.608 729.44C544.688 729.44 546.288 730.12 547.408 731.48C548.528 732.76 549.088 734.36 549.088 736.28C549.088 738.28 547.968 740.12 545.728 741.8C543.488 743.4 540.528 744.72 536.848 745.76C533.248 746.72 529.328 747.2 525.088 747.2C518.768 747.2 513.288 745.76 508.648 742.88C504.008 739.92 500.408 735.92 497.848 730.88C495.368 725.84 494.128 720.2 494.128 713.96C494.128 707.4 495.448 701.64 498.088 696.68C500.808 691.64 504.528 687.72 509.248 684.92C514.048 682.04 519.528 680.6 525.688 680.6ZM593.192 680.6C598.952 680.6 603.312 681.84 606.272 684.32C609.312 686.8 611.392 690.12 612.512 694.28C613.632 698.36 614.192 702.92 614.192 707.96V738.68C614.192 740.76 613.512 742.52 612.152 743.96C610.792 745.32 609.072 746 606.992 746C604.912 746 603.192 745.32 601.832 743.96C600.472 742.52 599.792 740.76 599.792 738.68V707.96C599.792 705.32 599.472 702.96 598.832 700.88C598.192 698.72 597.032 697 595.352 695.72C593.672 694.44 591.272 693.8 588.152 693.8C585.112 693.8 582.512 694.44 580.352 695.72C578.192 697 576.552 698.72 575.432 700.88C574.392 702.96 573.872 705.32 573.872 707.96V738.68C573.872 740.76 573.192 742.52 571.832 743.96C570.472 745.32 568.752 746 566.672 746C564.592 746 562.872 745.32 561.512 743.96C560.152 742.52 559.472 740.76 559.472 738.68V664.52C559.472 662.44 560.152 660.72 561.512 659.36C562.872 657.92 564.592 657.2 566.672 657.2C568.752 657.2 570.472 657.92 571.832 659.36C573.192 660.72 573.872 662.44 573.872 664.52V694.28L572.072 693.92C572.792 692.56 573.792 691.12 575.072 689.6C576.352 688 577.912 686.52 579.752 685.16C581.592 683.8 583.632 682.72 585.872 681.92C588.112 681.04 590.552 680.6 593.192 680.6ZM682.344 680.6C684.424 680.6 686.144 681.28 687.504 682.64C688.864 684 689.544 685.76 689.544 687.92V738.68C689.544 740.76 688.864 742.52 687.504 743.96C686.144 745.32 684.424 746 682.344 746C680.264 746 678.544 745.32 677.184 743.96C675.824 742.52 675.144 740.76 675.144 738.68V732.8L677.784 733.88C677.784 734.92 677.224 736.2 676.104 737.72C674.984 739.16 673.464 740.6 671.544 742.04C669.624 743.48 667.344 744.72 664.704 745.76C662.144 746.72 659.344 747.2 656.304 747.2C650.784 747.2 645.784 745.8 641.304 743C636.824 740.12 633.264 736.2 630.624 731.24C628.064 726.2 626.784 720.44 626.784 713.96C626.784 707.4 628.064 701.64 630.624 696.68C633.264 691.64 636.784 687.72 641.184 684.92C645.584 682.04 650.464 680.6 655.824 680.6C659.264 680.6 662.424 681.12 665.304 682.16C668.184 683.2 670.664 684.52 672.744 686.12C674.904 687.72 676.544 689.36 677.664 691.04C678.864 692.64 679.464 694 679.464 695.12L675.144 696.68V687.92C675.144 685.84 675.824 684.12 677.184 682.76C678.544 681.32 680.264 680.6 682.344 680.6ZM658.104 734C661.624 734 664.704 733.12 667.344 731.36C669.984 729.6 672.024 727.2 673.464 724.16C674.984 721.12 675.744 717.72 675.744 713.96C675.744 710.12 674.984 706.68 673.464 703.64C672.024 700.6 669.984 698.2 667.344 696.44C664.704 694.68 661.624 693.8 658.104 693.8C654.664 693.8 651.624 694.68 648.984 696.44C646.344 698.2 644.264 700.6 642.744 703.64C641.304 706.68 640.584 710.12 640.584 713.96C640.584 717.72 641.304 721.12 642.744 724.16C644.264 727.2 646.344 729.6 648.984 731.36C651.624 733.12 654.664 734 658.104 734ZM770.809 680.84L744.889 741.8C744.329 743.32 743.449 744.52 742.249 745.4C741.129 746.2 739.889 746.6 738.529 746.6C736.369 746.6 734.769 746 733.729 744.8C732.689 743.6 732.169 742.12 732.169 740.36C732.169 739.64 732.289 738.88 732.529 738.08L762.409 666.32C763.049 664.72 764.009 663.48 765.289 662.6C766.649 661.72 768.089 661.36 769.609 661.52C771.049 661.52 772.369 661.96 773.569 662.84C774.849 663.64 775.769 664.8 776.329 666.32L805.849 736.64C806.249 737.68 806.449 738.64 806.449 739.52C806.449 741.68 805.729 743.4 804.289 744.68C802.929 745.96 801.409 746.6 799.729 746.6C798.289 746.6 796.969 746.16 795.769 745.28C794.649 744.4 793.769 743.2 793.129 741.68L767.329 681.56L770.809 680.84ZM748.609 727.16L755.209 713.36H787.609L789.889 727.16H748.609ZM831.609 738.68C831.609 740.76 830.849 742.52 829.329 743.96C827.809 745.32 826.049 746 824.049 746C821.809 746 820.009 745.32 818.649 743.96C817.289 742.52 816.609 740.76 816.609 738.68V669.32C816.609 667.24 817.329 665.52 818.769 664.16C820.209 662.72 822.049 662 824.289 662C826.209 662 827.889 662.72 829.329 664.16C830.849 665.52 831.609 667.24 831.609 669.32V738.68ZM824.529 657.44C823.009 657.44 821.769 657.04 820.809 656.24C819.929 655.44 819.489 654.4 819.489 653.12C819.489 652.56 819.609 652.04 819.849 651.56C820.169 651 820.609 650.44 821.169 649.88L831.489 640.76C832.369 640.04 833.289 639.44 834.249 638.96C835.289 638.4 836.329 638.12 837.369 638.12C838.729 638.12 840.129 638.64 841.569 639.68C843.009 640.72 843.729 642.16 843.729 644C843.729 645.2 843.329 646.4 842.529 647.6C841.809 648.72 840.729 649.64 839.289 650.36L827.289 656.72C826.809 657.04 826.329 657.24 825.849 657.32C825.369 657.4 824.929 657.44 824.529 657.44Z" fill="#FFF6F6"/>
<path d="M495.04 204.237C486.172 204.957 475.626 206.397 468.116 207.838C401.805 220.479 348.197 268.645 329.502 332.172C324.949 347.534 326.466 357.695 334.216 364.576C341.167 370.657 325.827 370.177 512.696 370.177C698.046 370.177 683.586 370.577 690.457 364.976C694.371 361.776 697.727 355.535 698.446 350.094C699.804 340.333 690.377 312.81 679.272 293.848C660.657 262.244 631.496 236.001 598.101 220.959C581.483 213.438 563.108 208.158 545.372 205.757C536.664 204.557 502.949 203.517 495.04 204.237ZM520.685 272.085C523.801 274.165 526.997 279.766 526.997 283.046C526.997 288.887 522.123 295.768 517.01 297.048C513.655 297.928 507.023 296.888 504.786 295.208C499.833 291.527 497.756 284.807 499.753 278.806C500.792 275.526 504.866 271.525 508.222 270.245C511.657 269.045 517.25 269.845 520.685 272.085ZM444.308 283.046C451.578 285.047 455.493 290.567 454.934 297.928C453.975 309.45 440.793 314.73 431.845 307.209C427.131 303.209 425.773 296.008 428.649 290.327C430.566 286.567 432.644 284.727 436.478 283.286C440.233 282.006 440.393 282.006 444.308 283.046ZM592.349 285.287C593.787 286.247 595.624 288.487 596.503 290.167C601.217 299.528 594.745 310.25 584.439 310.33C579.166 310.41 575.811 308.809 572.775 304.809C570.858 302.329 570.538 301.129 570.538 296.648C570.538 290.727 572.296 287.287 576.85 284.407C580.365 282.246 588.674 282.646 592.349 285.287Z" fill="#FFF6F6"/>
<path d="M328.859 406.259C322.227 409.219 318.712 414.26 317.913 421.701C317.114 429.301 322.946 438.343 329.977 440.503C331.335 440.903 352.187 441.463 377.593 441.623C420.335 442.023 423.052 442.103 429.523 443.703C438.631 446.023 446.301 449.944 453.491 455.865C472.585 471.626 487.046 476.987 502.385 474.187C512.132 472.347 521 467.706 536.18 456.345C546.486 448.584 551.119 446.183 560.547 443.543C566.299 441.943 568.856 441.863 630.852 441.463L695.166 440.983L697.962 439.223C711.783 430.582 710.026 411.139 695.006 405.699C692.529 404.819 660.333 404.659 512.212 404.659C332.933 404.579 332.454 404.579 328.859 406.259Z" fill="#FFF6F6"/>
<path d="M334.229 478.937C329.675 480.617 324.002 485.817 321.366 490.778C319.289 494.698 319.209 495.339 319.289 506.06C319.369 515.821 319.608 518.141 321.446 524.302C325.76 538.304 332.231 548.785 342.937 558.946C350.527 566.067 358.676 571.107 369.221 575.028C383.283 580.308 378.489 580.148 516.943 579.908L641.974 579.668L648.126 577.908C678.565 569.187 699.177 547.745 705.089 518.541C707.167 508.62 706.528 496.219 703.731 490.858C701.015 485.657 697.34 482.217 691.827 479.657L687.273 477.656L626.715 477.816L566.077 478.057L560.804 480.537C557.928 481.897 551.057 486.137 545.464 489.898C529.885 500.539 519.499 505.18 506.317 507.26C497.768 508.7 482.269 507.9 474.6 505.66C465.971 503.259 453.828 497.019 444.64 490.378C434.813 483.337 431.518 481.287 425.926 479.687C419.615 477.846 339.422 477.176 334.229 478.937Z" fill="#FFF6F6"/>
<ellipse cx="441.165" cy="295.74" rx="15.0398" ry="15.0401" fill="#FFF6F6"/>
<path d="M440.042 279.215L434.915 292.888L421.242 298.015L434.915 303.142L440.042 316.815L445.169 303.142L458.842 298.015L445.169 292.888L440.042 279.215Z" fill="#E60023"/>
<ellipse cx="513.348" cy="283.708" rx="15.0398" ry="15.0401" fill="#FFF6F6"/>
<path d="M515.241 260.416L510.114 274.089L496.441 279.216L510.114 284.343L515.241 298.016L520.368 284.343L534.041 279.216L520.368 274.089L515.241 260.416Z" fill="#FFF6F6"/>
<path d="M515.241 260.416L510.114 274.089L496.441 279.216L510.114 284.343L515.241 298.016L520.368 284.343L534.041 279.216L520.368 274.089L515.241 260.416Z" fill="#E60023"/>
<ellipse cx="584.048" cy="295.74" rx="15.0398" ry="15.0401" fill="#FFF6F6"/>
<path d="M590.444 279.195L585.317 292.868L571.645 297.995L585.317 303.123L590.444 316.796L595.571 303.123L609.244 297.995L595.571 292.868L590.444 279.195Z" fill="#E60023"/>
<path d="M255.8 373.2L250.673 386.873L237 392L250.673 397.127L255.8 410.8L260.927 397.127L274.6 392L260.927 386.873L255.8 373.2Z" fill="#FFF6F6"/>
<path d="M769.038 373.2L763.911 386.873L750.238 392L763.911 397.127L769.038 410.8L774.166 397.127L787.838 392L774.166 386.873L769.038 373.2Z" fill="#FFF6F6"/>
</svg>
