<svg width="1182" height="315" viewBox="0 0 1182 315" fill="none" xmlns="http://www.w3.org/2000/svg">
<path d="M25 87L18.1818 105.182L0 112L18.1818 118.818L25 137L31.8182 118.818L50 112L31.8182 105.182L25 87Z" fill="#FE0019"/>
<path d="M1157 87L1150.18 105.182L1132 112L1150.18 118.818L1157 137L1163.82 118.818L1182 112L1163.82 105.182L1157 87Z" fill="#FE0019"/>
<path d="M201.135 59.786C204.238 61.3373 206.028 63.7837 206.505 67.125C207.102 70.4663 206.266 73.5093 203.999 76.254C202.448 78.402 200.419 79.5953 197.913 79.834C195.526 80.0727 193.08 79.5953 190.574 78.402C187.71 77.0893 184.667 76.075 181.445 75.359C178.342 74.643 175.061 74.285 171.6 74.285C165.156 74.285 159.368 75.2993 154.237 77.328C149.225 79.3567 144.929 82.2803 141.349 86.099C137.769 89.7983 135.024 94.2137 133.115 99.345C131.325 104.476 130.43 110.145 130.43 116.35C130.43 123.629 131.444 129.954 133.473 135.324C135.621 140.694 138.545 145.169 142.244 148.749C145.943 152.329 150.299 155.014 155.311 156.804C160.323 158.475 165.753 159.31 171.6 159.31C174.822 159.31 178.044 159.012 181.266 158.415C184.488 157.818 187.591 156.744 190.574 155.193C193.08 154 195.526 153.582 197.913 153.94C200.419 154.298 202.507 155.551 204.178 157.699C206.565 160.682 207.4 163.785 206.684 167.007C206.087 170.11 204.297 172.377 201.314 173.809C198.211 175.36 194.989 176.673 191.648 177.747C188.426 178.702 185.144 179.418 181.803 179.895C178.462 180.492 175.061 180.79 171.6 180.79C163.008 180.79 154.834 179.418 147.077 176.673C139.44 173.928 132.578 169.871 126.492 164.501C120.525 159.131 115.812 152.448 112.351 144.453C108.89 136.338 107.16 126.971 107.16 116.35C107.16 107.161 108.711 98.6887 111.814 90.932C115.036 83.1753 119.511 76.4927 125.239 70.884C131.086 65.156 137.948 60.7407 145.824 57.638C153.7 54.416 162.292 52.805 171.6 52.805C176.851 52.805 181.982 53.4017 186.994 54.595C192.006 55.7883 196.72 57.5187 201.135 59.786ZM302.262 81.445C305.364 81.445 307.93 82.4593 309.959 84.488C311.987 86.5167 313.002 89.142 313.002 92.364V168.081C313.002 171.184 311.987 173.809 309.959 175.957C307.93 177.986 305.364 179 302.262 179C299.159 179 296.593 177.986 294.565 175.957C292.536 173.809 291.522 171.184 291.522 168.081V159.31L295.46 160.921C295.46 162.472 294.624 164.382 292.954 166.649C291.283 168.797 289.016 170.945 286.152 173.093C283.288 175.241 279.887 177.091 275.949 178.642C272.13 180.074 267.953 180.79 263.419 180.79C255.185 180.79 247.726 178.702 241.044 174.525C234.361 170.229 229.051 164.382 225.113 156.983C221.294 149.465 219.385 140.873 219.385 131.207C219.385 121.422 221.294 112.83 225.113 105.431C229.051 97.913 234.301 92.0657 240.865 87.889C247.428 83.593 254.707 81.445 262.703 81.445C267.834 81.445 272.548 82.2207 276.844 83.772C281.14 85.3233 284.839 87.2923 287.942 89.679C291.164 92.0657 293.61 94.512 295.281 97.018C297.071 99.4047 297.966 101.433 297.966 103.104L291.522 105.431V92.364C291.522 89.2613 292.536 86.6957 294.565 84.667C296.593 82.519 299.159 81.445 302.262 81.445ZM266.104 161.1C271.354 161.1 275.949 159.787 279.887 157.162C283.825 154.537 286.868 150.957 289.016 146.422C291.283 141.887 292.417 136.816 292.417 131.207C292.417 125.479 291.283 120.348 289.016 115.813C286.868 111.278 283.825 107.698 279.887 105.073C275.949 102.448 271.354 101.135 266.104 101.135C260.972 101.135 256.438 102.448 252.5 105.073C248.562 107.698 245.459 111.278 243.192 115.813C241.044 120.348 239.97 125.479 239.97 131.207C239.97 136.816 241.044 141.887 243.192 146.422C245.459 150.957 248.562 154.537 252.5 157.162C256.438 159.787 260.972 161.1 266.104 161.1ZM385.842 81.445C394.195 81.445 401.654 83.593 408.217 87.889C414.9 92.0657 420.15 97.8533 423.969 105.252C427.907 112.651 429.876 121.243 429.876 131.028C429.876 140.813 427.907 149.465 423.969 156.983C420.15 164.382 414.959 170.229 408.396 174.525C401.952 178.702 394.673 180.79 386.558 180.79C381.785 180.79 377.31 180.014 373.133 178.463C368.956 176.912 365.257 174.943 362.035 172.556C358.932 170.169 356.486 167.783 354.696 165.396C353.025 162.89 352.19 160.802 352.19 159.131L357.739 156.804V203.881C357.739 206.984 356.725 209.549 354.696 211.578C352.667 213.726 350.102 214.8 346.999 214.8C343.896 214.8 341.331 213.786 339.302 211.757C337.273 209.728 336.259 207.103 336.259 203.881V94.154C336.259 91.0513 337.273 88.4857 339.302 86.457C341.331 84.309 343.896 83.235 346.999 83.235C350.102 83.235 352.667 84.309 354.696 86.457C356.725 88.4857 357.739 91.0513 357.739 94.154V102.925L354.696 101.314C354.696 99.7627 355.531 97.913 357.202 95.765C358.873 93.4977 361.14 91.29 364.004 89.142C366.868 86.8747 370.15 85.025 373.849 83.593C377.668 82.161 381.665 81.445 385.842 81.445ZM383.157 101.135C377.906 101.135 373.312 102.448 369.374 105.073C365.436 107.698 362.333 111.278 360.066 115.813C357.918 120.228 356.844 125.3 356.844 131.028C356.844 136.637 357.918 141.768 360.066 146.422C362.333 150.957 365.436 154.537 369.374 157.162C373.312 159.787 377.906 161.1 383.157 161.1C388.408 161.1 392.942 159.787 396.761 157.162C400.699 154.537 403.742 150.957 405.89 146.422C408.157 141.768 409.291 136.637 409.291 131.028C409.291 125.3 408.157 120.228 405.89 115.813C403.742 111.278 400.699 107.698 396.761 105.073C392.942 102.448 388.408 101.135 383.157 101.135ZM459.398 179C456.296 179 453.73 177.986 451.701 175.957C449.673 173.809 448.658 171.184 448.658 168.081V94.154C448.658 91.0513 449.673 88.4857 451.701 86.457C453.73 84.309 456.296 83.235 459.398 83.235C462.501 83.235 465.067 84.309 467.095 86.457C469.124 88.4857 470.138 91.0513 470.138 94.154V110.98L468.885 98.987C470.198 96.123 471.869 93.617 473.897 91.469C476.045 89.2017 478.432 87.352 481.057 85.92C483.683 84.3687 486.487 83.235 489.47 82.519C492.454 81.803 495.437 81.445 498.42 81.445C502 81.445 504.984 82.4593 507.37 84.488C509.876 86.5167 511.129 88.9033 511.129 91.648C511.129 95.586 510.115 98.45 508.086 100.24C506.058 101.911 503.85 102.746 501.463 102.746C499.196 102.746 497.108 102.328 495.198 101.493C493.408 100.658 491.32 100.24 488.933 100.24C486.785 100.24 484.578 100.777 482.31 101.851C480.162 102.806 478.134 104.357 476.224 106.505C474.434 108.653 472.943 111.338 471.749 114.56C470.675 117.663 470.138 121.362 470.138 125.658V168.081C470.138 171.184 469.124 173.809 467.095 175.957C465.067 177.986 462.501 179 459.398 179ZM546.499 168.081C546.499 171.184 545.484 173.809 543.456 175.957C541.427 177.986 538.861 179 535.759 179C532.656 179 530.09 177.986 528.062 175.957C526.033 173.809 525.019 171.184 525.019 168.081V94.154C525.019 91.0513 526.033 88.4857 528.062 86.457C530.09 84.309 532.656 83.235 535.759 83.235C538.861 83.235 541.427 84.309 543.456 86.457C545.484 88.4857 546.499 91.0513 546.499 94.154V168.081ZM535.58 71.6C531.522 71.6 528.658 70.9437 526.988 69.631C525.317 68.3183 524.482 65.9913 524.482 62.65V59.249C524.482 55.7883 525.377 53.4613 527.167 52.268C529.076 50.9553 531.94 50.299 535.759 50.299C539.935 50.299 542.859 50.9553 544.53 52.268C546.2 53.5807 547.036 55.9077 547.036 59.249V62.65C547.036 66.1107 546.141 68.4973 544.351 69.81C542.561 71.0033 539.637 71.6 535.58 71.6ZM611.176 81.445C617.978 81.445 623.885 82.161 628.897 83.593C634.029 85.025 637.967 87.0537 640.711 89.679C643.575 92.185 645.007 95.228 645.007 98.808C645.007 101.195 644.291 103.462 642.859 105.61C641.427 107.639 639.339 108.653 636.594 108.653C634.685 108.653 633.074 108.414 631.761 107.937C630.568 107.34 629.494 106.624 628.539 105.789C627.585 104.954 626.451 104.178 625.138 103.462C623.945 102.746 622.095 102.209 619.589 101.851C617.203 101.374 615.413 101.135 614.219 101.135C608.133 101.135 602.942 102.448 598.646 105.073C594.47 107.698 591.248 111.278 588.98 115.813C586.713 120.228 585.579 125.36 585.579 131.207C585.579 136.935 586.713 142.066 588.98 146.601C591.367 151.016 594.589 154.537 598.646 157.162C602.823 159.787 607.596 161.1 612.966 161.1C615.95 161.1 618.515 160.921 620.663 160.563C622.811 160.205 624.601 159.668 626.033 158.952C627.704 157.997 629.196 156.983 630.508 155.909C631.821 154.835 633.79 154.298 636.415 154.298C639.518 154.298 641.905 155.312 643.575 157.341C645.246 159.25 646.081 161.637 646.081 164.501C646.081 167.484 644.411 170.229 641.069 172.735C637.728 175.122 633.313 177.091 627.823 178.642C622.453 180.074 616.606 180.79 610.281 180.79C600.854 180.79 592.68 178.642 585.758 174.346C578.837 169.931 573.467 163.964 569.648 156.446C565.949 148.928 564.099 140.515 564.099 131.207C564.099 121.422 566.068 112.83 570.006 105.431C574.064 97.913 579.613 92.0657 586.653 87.889C593.813 83.593 601.988 81.445 611.176 81.445ZM711.87 81.445C720.462 81.445 726.965 83.2947 731.381 86.994C735.915 90.6933 739.018 95.6457 740.689 101.851C742.359 107.937 743.195 114.739 743.195 122.257V168.081C743.195 171.184 742.18 173.809 740.152 175.957C738.123 177.986 735.557 179 732.455 179C729.352 179 726.786 177.986 724.758 175.957C722.729 173.809 721.715 171.184 721.715 168.081V122.257C721.715 118.319 721.237 114.799 720.283 111.696C719.328 108.474 717.598 105.908 715.092 103.999C712.586 102.09 709.006 101.135 704.352 101.135C699.817 101.135 695.939 102.09 692.717 103.999C689.495 105.908 687.048 108.474 685.378 111.696C683.826 114.799 683.051 118.319 683.051 122.257V168.081C683.051 171.184 682.036 173.809 680.008 175.957C677.979 177.986 675.413 179 672.311 179C669.208 179 666.642 177.986 664.614 175.957C662.585 173.809 661.571 171.184 661.571 168.081V57.459C661.571 54.3563 662.585 51.7907 664.614 49.762C666.642 47.614 669.208 46.54 672.311 46.54C675.413 46.54 677.979 47.614 680.008 49.762C682.036 51.7907 683.051 54.3563 683.051 57.459V101.851L680.366 101.314C681.44 99.2853 682.931 97.1373 684.841 94.87C686.75 92.4833 689.077 90.2757 691.822 88.247C694.566 86.2183 697.609 84.6073 700.951 83.414C704.292 82.1013 707.932 81.445 711.87 81.445ZM844.855 81.445C847.958 81.445 850.524 82.4593 852.552 84.488C854.581 86.5167 855.595 89.142 855.595 92.364V168.081C855.595 171.184 854.581 173.809 852.552 175.957C850.524 177.986 847.958 179 844.855 179C841.753 179 839.187 177.986 837.158 175.957C835.13 173.809 834.115 171.184 834.115 168.081V159.31L838.053 160.921C838.053 162.472 837.218 164.382 835.547 166.649C833.877 168.797 831.609 170.945 828.745 173.093C825.881 175.241 822.48 177.091 818.542 178.642C814.724 180.074 810.547 180.79 806.012 180.79C797.778 180.79 790.32 178.702 783.637 174.525C776.955 170.229 771.644 164.382 767.706 156.983C763.888 149.465 761.978 140.873 761.978 131.207C761.978 121.422 763.888 112.83 767.706 105.431C771.644 97.913 776.895 92.0657 783.458 87.889C790.022 83.593 797.301 81.445 805.296 81.445C810.428 81.445 815.141 82.2207 819.437 83.772C823.733 85.3233 827.433 87.2923 830.535 89.679C833.757 92.0657 836.204 94.512 837.874 97.018C839.664 99.4047 840.559 101.433 840.559 103.104L834.115 105.431V92.364C834.115 89.2613 835.13 86.6957 837.158 84.667C839.187 82.519 841.753 81.445 844.855 81.445ZM808.697 161.1C813.948 161.1 818.542 159.787 822.48 157.162C826.418 154.537 829.461 150.957 831.609 146.422C833.877 141.887 835.01 136.816 835.01 131.207C835.01 125.479 833.877 120.348 831.609 115.813C829.461 111.278 826.418 107.698 822.48 105.073C818.542 102.448 813.948 101.135 808.697 101.135C803.566 101.135 799.031 102.448 795.093 105.073C791.155 107.698 788.053 111.278 785.785 115.813C783.637 120.348 782.563 125.479 782.563 131.207C782.563 136.816 783.637 141.887 785.785 146.422C788.053 150.957 791.155 154.537 795.093 157.162C799.031 159.787 803.566 161.1 808.697 161.1ZM976.815 81.803L938.151 172.735C937.315 175.002 936.003 176.792 934.213 178.105C932.542 179.298 930.692 179.895 928.664 179.895C925.442 179.895 923.055 179 921.504 177.21C919.952 175.42 919.177 173.212 919.177 170.587C919.177 169.513 919.356 168.379 919.714 167.186L964.285 60.144C965.239 57.7573 966.671 55.9077 968.581 54.595C970.609 53.2823 972.757 52.7453 975.025 52.984C977.173 52.984 979.142 53.6403 980.932 54.953C982.841 56.1463 984.213 57.8767 985.049 60.144L1029.08 165.038C1029.68 166.589 1029.98 168.021 1029.98 169.334C1029.98 172.556 1028.9 175.122 1026.76 177.031C1024.73 178.94 1022.46 179.895 1019.95 179.895C1017.81 179.895 1015.84 179.239 1014.05 177.926C1012.38 176.613 1011.06 174.823 1010.11 172.556L971.624 82.877L976.815 81.803ZM943.7 150.897L953.545 130.312H1001.87L1005.28 150.897H943.7ZM1067.51 168.081C1067.51 171.184 1066.38 173.809 1064.11 175.957C1061.84 177.986 1059.22 179 1056.23 179C1052.89 179 1050.21 177.986 1048.18 175.957C1046.15 173.809 1045.13 171.184 1045.13 168.081V64.619C1045.13 61.5163 1046.21 58.9507 1048.36 56.922C1050.5 54.774 1053.25 53.7 1056.59 53.7C1059.45 53.7 1061.96 54.774 1064.11 56.922C1066.38 58.9507 1067.51 61.5163 1067.51 64.619V168.081ZM1056.95 46.898C1054.68 46.898 1052.83 46.3013 1051.4 45.108C1050.09 43.9147 1049.43 42.3633 1049.43 40.454C1049.43 39.6187 1049.61 38.843 1049.97 38.127C1050.44 37.2917 1051.1 36.4563 1051.94 35.621L1067.33 22.017C1068.64 20.943 1070.01 20.048 1071.45 19.332C1073 18.4967 1074.55 18.079 1076.1 18.079C1078.13 18.079 1080.22 18.8547 1082.37 20.406C1084.51 21.9573 1085.59 24.1053 1085.59 26.85C1085.59 28.64 1084.99 30.43 1083.8 32.22C1082.72 33.8907 1081.11 35.263 1078.96 36.337L1061.06 45.824C1060.35 46.3013 1059.63 46.5997 1058.92 46.719C1058.2 46.8383 1057.54 46.898 1056.95 46.898Z" fill="#FE0019"/>
<path d="M212.934 262V302H205.629L188.227 276.824H187.934V302H179.477V262H186.898L204.164 287.156H204.516V262H212.934ZM256.679 282C256.679 286.362 255.852 290.073 254.198 293.133C252.558 296.193 250.318 298.53 247.479 300.145C244.654 301.746 241.477 302.547 237.948 302.547C234.394 302.547 231.203 301.74 228.378 300.125C225.552 298.51 223.319 296.173 221.679 293.113C220.038 290.053 219.218 286.349 219.218 282C219.218 277.638 220.038 273.927 221.679 270.867C223.319 267.807 225.552 265.477 228.378 263.875C231.203 262.26 234.394 261.453 237.948 261.453C241.477 261.453 244.654 262.26 247.479 263.875C250.318 265.477 252.558 267.807 254.198 270.867C255.852 273.927 256.679 277.638 256.679 282ZM248.104 282C248.104 279.174 247.681 276.792 246.835 274.852C246.002 272.911 244.823 271.44 243.3 270.438C241.776 269.435 239.993 268.934 237.948 268.934C235.904 268.934 234.12 269.435 232.597 270.438C231.073 271.44 229.888 272.911 229.042 274.852C228.209 276.792 227.792 279.174 227.792 282C227.792 284.826 228.209 287.208 229.042 289.148C229.888 291.089 231.073 292.56 232.597 293.562C234.12 294.565 235.904 295.066 237.948 295.066C239.993 295.066 241.776 294.565 243.3 293.562C244.823 292.56 246.002 291.089 246.835 289.148C247.681 287.208 248.104 284.826 248.104 282ZM297.372 273.504C297.216 271.928 296.545 270.704 295.36 269.832C294.175 268.96 292.567 268.523 290.536 268.523C289.156 268.523 287.991 268.719 287.04 269.109C286.09 269.487 285.36 270.014 284.853 270.691C284.358 271.368 284.11 272.137 284.11 272.996C284.084 273.712 284.234 274.337 284.56 274.871C284.898 275.405 285.36 275.867 285.946 276.258C286.532 276.635 287.209 276.967 287.978 277.254C288.746 277.527 289.566 277.762 290.438 277.957L294.032 278.816C295.777 279.207 297.379 279.728 298.837 280.379C300.295 281.03 301.558 281.831 302.626 282.781C303.694 283.732 304.521 284.852 305.106 286.141C305.705 287.43 306.011 288.908 306.024 290.574C306.011 293.022 305.386 295.145 304.149 296.941C302.925 298.725 301.155 300.112 298.837 301.102C296.532 302.078 293.752 302.566 290.497 302.566C287.268 302.566 284.455 302.072 282.06 301.082C279.677 300.092 277.815 298.628 276.474 296.687C275.146 294.734 274.449 292.319 274.384 289.441H282.567C282.659 290.783 283.043 291.902 283.72 292.801C284.41 293.686 285.328 294.357 286.474 294.812C287.632 295.255 288.941 295.477 290.399 295.477C291.832 295.477 293.075 295.268 294.13 294.852C295.198 294.435 296.024 293.855 296.61 293.113C297.196 292.371 297.489 291.518 297.489 290.555C297.489 289.656 297.222 288.901 296.688 288.289C296.168 287.677 295.399 287.156 294.384 286.727C293.381 286.297 292.151 285.906 290.692 285.555L286.337 284.461C282.965 283.641 280.302 282.358 278.349 280.613C276.396 278.868 275.425 276.518 275.438 273.562C275.425 271.141 276.07 269.025 277.372 267.215C278.687 265.405 280.491 263.992 282.782 262.977C285.074 261.961 287.678 261.453 290.595 261.453C293.563 261.453 296.155 261.961 298.368 262.977C300.595 263.992 302.326 265.405 303.563 267.215C304.8 269.025 305.438 271.121 305.478 273.504H297.372ZM317.694 302H308.632L322.44 262H333.339L347.128 302H338.065L328.046 271.141H327.733L317.694 302ZM317.128 286.277H338.534V292.879H317.128V286.277ZM351.942 302V262H367.958C370.901 262 373.355 262.436 375.321 263.309C377.287 264.181 378.765 265.392 379.755 266.941C380.744 268.478 381.239 270.249 381.239 272.254C381.239 273.816 380.927 275.19 380.302 276.375C379.677 277.547 378.817 278.51 377.724 279.266C376.643 280.008 375.406 280.535 374.013 280.848V281.238C375.536 281.303 376.962 281.733 378.29 282.527C379.631 283.322 380.718 284.435 381.552 285.867C382.385 287.286 382.802 288.979 382.802 290.945C382.802 293.068 382.274 294.962 381.22 296.629C380.178 298.283 378.635 299.591 376.591 300.555C374.547 301.518 372.027 302 369.032 302H351.942ZM360.399 295.086H367.294C369.651 295.086 371.369 294.637 372.45 293.738C373.531 292.827 374.071 291.616 374.071 290.105C374.071 288.999 373.804 288.022 373.271 287.176C372.737 286.329 371.975 285.665 370.985 285.184C370.009 284.702 368.843 284.461 367.489 284.461H360.399V295.086ZM360.399 278.738H366.669C367.828 278.738 368.856 278.536 369.755 278.133C370.666 277.716 371.382 277.13 371.903 276.375C372.437 275.62 372.704 274.715 372.704 273.66C372.704 272.215 372.19 271.049 371.161 270.164C370.146 269.279 368.7 268.836 366.825 268.836H360.399V278.738ZM425.063 282C425.063 286.362 424.236 290.073 422.582 293.133C420.941 296.193 418.702 298.53 415.863 300.145C413.038 301.746 409.861 302.547 406.332 302.547C402.777 302.547 399.587 301.74 396.762 300.125C393.936 298.51 391.703 296.173 390.063 293.113C388.422 290.053 387.602 286.349 387.602 282C387.602 277.638 388.422 273.927 390.063 270.867C391.703 267.807 393.936 265.477 396.762 263.875C399.587 262.26 402.777 261.453 406.332 261.453C409.861 261.453 413.038 262.26 415.863 263.875C418.702 265.477 420.941 267.807 422.582 270.867C424.236 273.927 425.063 277.638 425.063 282ZM416.488 282C416.488 279.174 416.065 276.792 415.219 274.852C414.385 272.911 413.207 271.44 411.684 270.438C410.16 269.435 408.376 268.934 406.332 268.934C404.288 268.934 402.504 269.435 400.98 270.438C399.457 271.44 398.272 272.911 397.426 274.852C396.592 276.792 396.176 279.174 396.176 282C396.176 284.826 396.592 287.208 397.426 289.148C398.272 291.089 399.457 292.56 400.98 293.562C402.504 294.565 404.288 295.066 406.332 295.066C408.376 295.066 410.16 294.565 411.684 293.562C413.207 292.56 414.385 291.089 415.219 289.148C416.065 287.208 416.488 284.826 416.488 282ZM431.327 302V262H447.108C450.129 262 452.707 262.54 454.843 263.621C456.991 264.689 458.625 266.206 459.745 268.172C460.878 270.125 461.444 272.423 461.444 275.066C461.444 277.723 460.871 280.008 459.726 281.922C458.58 283.823 456.92 285.281 454.745 286.297C452.584 287.312 449.966 287.82 446.894 287.82H436.327V281.023H445.526C447.141 281.023 448.482 280.802 449.55 280.359C450.618 279.917 451.412 279.253 451.933 278.367C452.466 277.482 452.733 276.382 452.733 275.066C452.733 273.738 452.466 272.618 451.933 271.707C451.412 270.796 450.611 270.105 449.53 269.637C448.463 269.155 447.115 268.914 445.487 268.914H439.784V302H431.327ZM452.929 283.797L462.87 302H453.534L443.808 283.797H452.929ZM495.248 288.094H502.436L506.049 292.742L509.604 296.883L516.303 305.281H508.412L503.803 299.617L501.439 296.258L495.248 288.094ZM516.908 282C516.908 286.362 516.081 290.073 514.428 293.133C512.787 296.193 510.548 298.53 507.709 300.145C504.883 301.746 501.706 302.547 498.178 302.547C494.623 302.547 491.433 301.74 488.607 300.125C485.782 298.51 483.549 296.173 481.908 293.113C480.268 290.053 479.447 286.349 479.447 282C479.447 277.638 480.268 273.927 481.908 270.867C483.549 267.807 485.782 265.477 488.607 263.875C491.433 262.26 494.623 261.453 498.178 261.453C501.706 261.453 504.883 262.26 507.709 263.875C510.548 265.477 512.787 267.807 514.428 270.867C516.081 273.927 516.908 277.638 516.908 282ZM508.334 282C508.334 279.174 507.911 276.792 507.064 274.852C506.231 272.911 505.053 271.44 503.529 270.438C502.006 269.435 500.222 268.934 498.178 268.934C496.133 268.934 494.35 269.435 492.826 270.438C491.303 271.44 490.118 272.911 489.271 274.852C488.438 276.792 488.021 279.174 488.021 282C488.021 284.826 488.438 287.208 489.271 289.148C490.118 291.089 491.303 292.56 492.826 293.562C494.35 294.565 496.133 295.066 498.178 295.066C500.222 295.066 502.006 294.565 503.529 293.562C505.053 292.56 506.231 291.089 507.064 289.148C507.911 287.208 508.334 284.826 508.334 282ZM547.88 262H556.337V287.977C556.337 290.893 555.64 293.445 554.247 295.633C552.867 297.82 550.933 299.526 548.446 300.75C545.959 301.961 543.062 302.566 539.755 302.566C536.435 302.566 533.531 301.961 531.044 300.75C528.557 299.526 526.623 297.82 525.243 295.633C523.863 293.445 523.173 290.893 523.173 287.977V262H531.63V287.254C531.63 288.777 531.962 290.132 532.626 291.316C533.303 292.501 534.254 293.432 535.478 294.109C536.701 294.786 538.127 295.125 539.755 295.125C541.396 295.125 542.821 294.786 544.032 294.109C545.256 293.432 546.2 292.501 546.864 291.316C547.541 290.132 547.88 288.777 547.88 287.254V262ZM563.295 302V262H590.248V268.973H571.752V278.504H588.861V285.477H571.752V295.027H590.326V302H563.295ZM616.928 262L626.596 292.391H626.967L636.654 262H646.029L632.24 302H621.342L607.533 262H616.928ZM685.346 282C685.346 286.362 684.519 290.073 682.865 293.133C681.225 296.193 678.985 298.53 676.146 300.145C673.321 301.746 670.144 302.547 666.615 302.547C663.061 302.547 659.87 301.74 657.045 300.125C654.219 298.51 651.986 296.173 650.346 293.113C648.705 290.053 647.885 286.349 647.885 282C647.885 277.638 648.705 273.927 650.346 270.867C651.986 267.807 654.219 265.477 657.045 263.875C659.87 262.26 663.061 261.453 666.615 261.453C670.144 261.453 673.321 262.26 676.146 263.875C678.985 265.477 681.225 267.807 682.865 270.867C684.519 273.927 685.346 277.638 685.346 282ZM676.771 282C676.771 279.174 676.348 276.792 675.502 274.852C674.669 272.911 673.49 271.44 671.967 270.438C670.443 269.435 668.66 268.934 666.615 268.934C664.571 268.934 662.787 269.435 661.264 270.438C659.74 271.44 658.555 272.911 657.709 274.852C656.876 276.792 656.459 279.174 656.459 282C656.459 284.826 656.876 287.208 657.709 289.148C658.555 291.089 659.74 292.56 661.264 293.562C662.787 294.565 664.571 295.066 666.615 295.066C668.66 295.066 670.443 294.565 671.967 293.562C673.49 292.56 674.669 291.089 675.502 289.148C676.348 287.208 676.771 284.826 676.771 282ZM726.903 276.004H718.349C718.192 274.897 717.873 273.914 717.392 273.055C716.91 272.182 716.291 271.44 715.536 270.828C714.781 270.216 713.909 269.747 712.919 269.422C711.942 269.096 710.881 268.934 709.735 268.934C707.665 268.934 705.862 269.448 704.325 270.477C702.789 271.492 701.597 272.977 700.751 274.93C699.905 276.87 699.481 279.227 699.481 282C699.481 284.852 699.905 287.247 700.751 289.187C701.61 291.128 702.808 292.592 704.345 293.582C705.881 294.572 707.659 295.066 709.677 295.066C710.81 295.066 711.858 294.917 712.821 294.617C713.798 294.318 714.664 293.882 715.419 293.309C716.174 292.723 716.799 292.013 717.294 291.18C717.802 290.346 718.153 289.396 718.349 288.328L726.903 288.367C726.682 290.203 726.129 291.974 725.243 293.68C724.371 295.372 723.192 296.889 721.708 298.23C720.237 299.559 718.479 300.613 716.435 301.395C714.403 302.163 712.105 302.547 709.54 302.547C705.972 302.547 702.782 301.74 699.97 300.125C697.17 298.51 694.957 296.173 693.329 293.113C691.715 290.053 690.907 286.349 690.907 282C690.907 277.638 691.728 273.927 693.368 270.867C695.009 267.807 697.235 265.477 700.048 263.875C702.86 262.26 706.024 261.453 709.54 261.453C711.858 261.453 714.006 261.779 715.985 262.43C717.978 263.081 719.742 264.031 721.278 265.281C722.815 266.518 724.065 268.035 725.028 269.832C726.005 271.629 726.63 273.686 726.903 276.004ZM732.968 302V262H759.921V268.973H741.425V278.504H758.534V285.477H741.425V295.027H759.999V302H732.968ZM750.429 258.406L746.503 253.641L742.577 258.406H735.487V258.133L743.397 249.539H749.589L757.519 258.133V258.406H750.429ZM779.374 262H789.804L800.819 288.875H801.288L812.304 262H822.733V302H814.53V275.965H814.198L803.847 301.805H798.261L787.909 275.867H787.577V302H779.374V262ZM829.701 302V262H856.654V268.973H838.158V278.504H855.268V285.477H838.158V295.027H856.732V302H829.701ZM863.378 302V262H879.159C882.18 262 884.758 262.54 886.894 263.621C889.042 264.689 890.676 266.206 891.796 268.172C892.929 270.125 893.495 272.423 893.495 275.066C893.495 277.723 892.922 280.008 891.776 281.922C890.631 283.823 888.97 285.281 886.796 286.297C884.634 287.312 882.017 287.82 878.944 287.82H868.378V281.023H877.577C879.192 281.023 880.533 280.802 881.601 280.359C882.668 279.917 883.463 279.253 883.983 278.367C884.517 277.482 884.784 276.382 884.784 275.066C884.784 273.738 884.517 272.618 883.983 271.707C883.463 270.796 882.662 270.105 881.581 269.637C880.513 269.155 879.166 268.914 877.538 268.914H871.835V302H863.378ZM884.979 283.797L894.921 302H885.585L875.858 283.797H884.979ZM899.472 302V262H926.425V268.973H907.929V278.504H925.038V285.477H907.929V295.027H926.503V302H899.472ZM968.441 276.004H959.887C959.73 274.897 959.411 273.914 958.93 273.055C958.448 272.182 957.829 271.44 957.074 270.828C956.319 270.216 955.447 269.747 954.457 269.422C953.48 269.096 952.419 268.934 951.273 268.934C949.203 268.934 947.4 269.448 945.863 270.477C944.327 271.492 943.135 272.977 942.289 274.93C941.443 276.87 941.02 279.227 941.02 282C941.02 284.852 941.443 287.247 942.289 289.187C943.148 291.128 944.346 292.592 945.883 293.582C947.419 294.572 949.197 295.066 951.215 295.066C952.348 295.066 953.396 294.917 954.359 294.617C955.336 294.318 956.202 293.882 956.957 293.309C957.712 292.723 958.337 292.013 958.832 291.18C959.34 290.346 959.691 289.396 959.887 288.328L968.441 288.367C968.22 290.203 967.667 291.974 966.781 293.68C965.909 295.372 964.73 296.889 963.246 298.23C961.775 299.559 960.017 300.613 957.973 301.395C955.941 302.163 953.643 302.547 951.078 302.547C947.51 302.547 944.32 301.74 941.508 300.125C938.708 298.51 936.495 296.173 934.867 293.113C933.253 290.053 932.445 286.349 932.445 282C932.445 277.638 933.266 273.927 934.906 270.867C936.547 267.807 938.773 265.477 941.586 263.875C944.398 262.26 947.563 261.453 951.078 261.453C953.396 261.453 955.544 261.779 957.523 262.43C959.516 263.081 961.28 264.031 962.816 265.281C964.353 266.518 965.603 268.035 966.566 269.832C967.543 271.629 968.168 273.686 968.441 276.004ZM974.506 302V262H1001.46V268.973H982.963V278.504H1000.07V285.477H982.963V295.027H1001.54V302H974.506Z" fill="#0F0F0F"/>
</svg>
